G04 #@! TF.GenerationSoftware,KiCad,Pcbnew,9.0.7*
G04 #@! TF.CreationDate,2026-02-15T19:18:06+01:00*
G04 #@! TF.ProjectId,CM5IO,434d3549-4f2e-46b6-9963-61645f706362,rev?*
G04 #@! TF.SameCoordinates,Original*
G04 #@! TF.FileFunction,Paste,Top*
G04 #@! TF.FilePolarity,Positive*
%FSLAX46Y46*%
G04 Gerber Fmt 4.6, Leading zero omitted, Abs format (unit mm)*
G04 Created by KiCad (PCBNEW 9.0.7) date 2026-02-15 19:18:06*
%MOMM*%
%LPD*%
G01*
G04 APERTURE LIST*
G04 Aperture macros list*
%AMRoundRect*
0 Rectangle with rounded corners*
0 $1 Rounding radius*
0 $2 $3 $4 $5 $6 $7 $8 $9 X,Y pos of 4 corners*
0 Add a 4 corners polygon primitive as box body*
4,1,4,$2,$3,$4,$5,$6,$7,$8,$9,$2,$3,0*
0 Add four circle primitives for the rounded corners*
1,1,$1+$1,$2,$3*
1,1,$1+$1,$4,$5*
1,1,$1+$1,$6,$7*
1,1,$1+$1,$8,$9*
0 Add four rect primitives between the rounded corners*
20,1,$1+$1,$2,$3,$4,$5,0*
20,1,$1+$1,$4,$5,$6,$7,0*
20,1,$1+$1,$6,$7,$8,$9,0*
20,1,$1+$1,$8,$9,$2,$3,0*%
G04 Aperture macros list end*
%ADD10C,0.010000*%
%ADD11RoundRect,0.200000X-0.275000X0.200000X-0.275000X-0.200000X0.275000X-0.200000X0.275000X0.200000X0*%
%ADD12RoundRect,0.218750X-0.218750X-0.256250X0.218750X-0.256250X0.218750X0.256250X-0.218750X0.256250X0*%
%ADD13RoundRect,0.135000X-0.135000X-0.185000X0.135000X-0.185000X0.135000X0.185000X-0.135000X0.185000X0*%
%ADD14RoundRect,0.200000X0.200000X0.275000X-0.200000X0.275000X-0.200000X-0.275000X0.200000X-0.275000X0*%
%ADD15R,1.200000X0.600000*%
%ADD16R,1.400000X0.800000*%
%ADD17R,0.700000X0.200000*%
%ADD18RoundRect,0.140000X-0.170000X0.140000X-0.170000X-0.140000X0.170000X-0.140000X0.170000X0.140000X0*%
%ADD19RoundRect,0.225000X0.250000X-0.225000X0.250000X0.225000X-0.250000X0.225000X-0.250000X-0.225000X0*%
%ADD20RoundRect,0.075000X-0.075000X-0.200000X0.075000X-0.200000X0.075000X0.200000X-0.075000X0.200000X0*%
%ADD21RoundRect,0.200000X-0.200000X-0.275000X0.200000X-0.275000X0.200000X0.275000X-0.200000X0.275000X0*%
%ADD22RoundRect,0.200000X0.275000X-0.200000X0.275000X0.200000X-0.275000X0.200000X-0.275000X-0.200000X0*%
%ADD23RoundRect,0.150000X-0.150000X-0.625000X0.150000X-0.625000X0.150000X0.625000X-0.150000X0.625000X0*%
%ADD24RoundRect,0.250000X-0.350000X-0.650000X0.350000X-0.650000X0.350000X0.650000X-0.350000X0.650000X0*%
%ADD25R,2.400000X3.100000*%
%ADD26R,2.200000X0.500000*%
%ADD27RoundRect,0.375000X0.625000X0.375000X-0.625000X0.375000X-0.625000X-0.375000X0.625000X-0.375000X0*%
%ADD28RoundRect,0.500000X0.500000X1.400000X-0.500000X1.400000X-0.500000X-1.400000X0.500000X-1.400000X0*%
%ADD29RoundRect,0.250000X-0.475000X0.250000X-0.475000X-0.250000X0.475000X-0.250000X0.475000X0.250000X0*%
%ADD30RoundRect,0.225000X-0.250000X0.225000X-0.250000X-0.225000X0.250000X-0.225000X0.250000X0.225000X0*%
%ADD31RoundRect,0.140000X0.170000X-0.140000X0.170000X0.140000X-0.170000X0.140000X-0.170000X-0.140000X0*%
G04 APERTURE END LIST*
D10*
G04 #@! TO.C,J2*
X370631192Y-90959974D02*
X370452192Y-90959974D01*
X370452192Y-90333974D01*
X370631192Y-90333974D01*
X370631192Y-90959974D01*
G36*
X370631192Y-90959974D02*
G01*
X370452192Y-90959974D01*
X370452192Y-90333974D01*
X370631192Y-90333974D01*
X370631192Y-90959974D01*
G37*
X370631192Y-94039974D02*
X370452192Y-94039974D01*
X370452192Y-93413974D01*
X370631192Y-93413974D01*
X370631192Y-94039974D01*
G36*
X370631192Y-94039974D02*
G01*
X370452192Y-94039974D01*
X370452192Y-93413974D01*
X370631192Y-93413974D01*
X370631192Y-94039974D01*
G37*
X371031192Y-90959974D02*
X370852192Y-90959974D01*
X370852192Y-90333974D01*
X371031192Y-90333974D01*
X371031192Y-90959974D01*
G36*
X371031192Y-90959974D02*
G01*
X370852192Y-90959974D01*
X370852192Y-90333974D01*
X371031192Y-90333974D01*
X371031192Y-90959974D01*
G37*
X371031192Y-94039974D02*
X370852192Y-94039974D01*
X370852192Y-93413974D01*
X371031192Y-93413974D01*
X371031192Y-94039974D01*
G36*
X371031192Y-94039974D02*
G01*
X370852192Y-94039974D01*
X370852192Y-93413974D01*
X371031192Y-93413974D01*
X371031192Y-94039974D01*
G37*
X371431192Y-90959974D02*
X371252192Y-90959974D01*
X371252192Y-90333974D01*
X371431192Y-90333974D01*
X371431192Y-90959974D01*
G36*
X371431192Y-90959974D02*
G01*
X371252192Y-90959974D01*
X371252192Y-90333974D01*
X371431192Y-90333974D01*
X371431192Y-90959974D01*
G37*
X371431192Y-94039974D02*
X371252192Y-94039974D01*
X371252192Y-93413974D01*
X371431192Y-93413974D01*
X371431192Y-94039974D01*
G36*
X371431192Y-94039974D02*
G01*
X371252192Y-94039974D01*
X371252192Y-93413974D01*
X371431192Y-93413974D01*
X371431192Y-94039974D01*
G37*
X371831192Y-90959974D02*
X371652192Y-90959974D01*
X371652192Y-90333974D01*
X371831192Y-90333974D01*
X371831192Y-90959974D01*
G36*
X371831192Y-90959974D02*
G01*
X371652192Y-90959974D01*
X371652192Y-90333974D01*
X371831192Y-90333974D01*
X371831192Y-90959974D01*
G37*
X371831192Y-94039974D02*
X371652192Y-94039974D01*
X371652192Y-93413974D01*
X371831192Y-93413974D01*
X371831192Y-94039974D01*
G36*
X371831192Y-94039974D02*
G01*
X371652192Y-94039974D01*
X371652192Y-93413974D01*
X371831192Y-93413974D01*
X371831192Y-94039974D01*
G37*
X372231192Y-90959974D02*
X372052192Y-90959974D01*
X372052192Y-90333974D01*
X372231192Y-90333974D01*
X372231192Y-90959974D01*
G36*
X372231192Y-90959974D02*
G01*
X372052192Y-90959974D01*
X372052192Y-90333974D01*
X372231192Y-90333974D01*
X372231192Y-90959974D01*
G37*
X372231192Y-94039974D02*
X372052192Y-94039974D01*
X372052192Y-93413974D01*
X372231192Y-93413974D01*
X372231192Y-94039974D01*
G36*
X372231192Y-94039974D02*
G01*
X372052192Y-94039974D01*
X372052192Y-93413974D01*
X372231192Y-93413974D01*
X372231192Y-94039974D01*
G37*
X372631192Y-90959974D02*
X372452192Y-90959974D01*
X372452192Y-90333974D01*
X372631192Y-90333974D01*
X372631192Y-90959974D01*
G36*
X372631192Y-90959974D02*
G01*
X372452192Y-90959974D01*
X372452192Y-90333974D01*
X372631192Y-90333974D01*
X372631192Y-90959974D01*
G37*
X372631192Y-94039974D02*
X372452192Y-94039974D01*
X372452192Y-93413974D01*
X372631192Y-93413974D01*
X372631192Y-94039974D01*
G36*
X372631192Y-94039974D02*
G01*
X372452192Y-94039974D01*
X372452192Y-93413974D01*
X372631192Y-93413974D01*
X372631192Y-94039974D01*
G37*
X373031192Y-90959974D02*
X372852192Y-90959974D01*
X372852192Y-90333974D01*
X373031192Y-90333974D01*
X373031192Y-90959974D01*
G36*
X373031192Y-90959974D02*
G01*
X372852192Y-90959974D01*
X372852192Y-90333974D01*
X373031192Y-90333974D01*
X373031192Y-90959974D01*
G37*
X373031192Y-94039974D02*
X372852192Y-94039974D01*
X372852192Y-93413974D01*
X373031192Y-93413974D01*
X373031192Y-94039974D01*
G36*
X373031192Y-94039974D02*
G01*
X372852192Y-94039974D01*
X372852192Y-93413974D01*
X373031192Y-93413974D01*
X373031192Y-94039974D01*
G37*
X373431192Y-90959974D02*
X373252192Y-90959974D01*
X373252192Y-90333974D01*
X373431192Y-90333974D01*
X373431192Y-90959974D01*
G36*
X373431192Y-90959974D02*
G01*
X373252192Y-90959974D01*
X373252192Y-90333974D01*
X373431192Y-90333974D01*
X373431192Y-90959974D01*
G37*
X373431192Y-94039974D02*
X373252192Y-94039974D01*
X373252192Y-93413974D01*
X373431192Y-93413974D01*
X373431192Y-94039974D01*
G36*
X373431192Y-94039974D02*
G01*
X373252192Y-94039974D01*
X373252192Y-93413974D01*
X373431192Y-93413974D01*
X373431192Y-94039974D01*
G37*
X373831192Y-90959974D02*
X373652192Y-90959974D01*
X373652192Y-90333974D01*
X373831192Y-90333974D01*
X373831192Y-90959974D01*
G36*
X373831192Y-90959974D02*
G01*
X373652192Y-90959974D01*
X373652192Y-90333974D01*
X373831192Y-90333974D01*
X373831192Y-90959974D01*
G37*
X373831192Y-94039974D02*
X373652192Y-94039974D01*
X373652192Y-93413974D01*
X373831192Y-93413974D01*
X373831192Y-94039974D01*
G36*
X373831192Y-94039974D02*
G01*
X373652192Y-94039974D01*
X373652192Y-93413974D01*
X373831192Y-93413974D01*
X373831192Y-94039974D01*
G37*
X374231192Y-90959974D02*
X374052192Y-90959974D01*
X374052192Y-90333974D01*
X374231192Y-90333974D01*
X374231192Y-90959974D01*
G36*
X374231192Y-90959974D02*
G01*
X374052192Y-90959974D01*
X374052192Y-90333974D01*
X374231192Y-90333974D01*
X374231192Y-90959974D01*
G37*
X374231192Y-94039974D02*
X374052192Y-94039974D01*
X374052192Y-93413974D01*
X374231192Y-93413974D01*
X374231192Y-94039974D01*
G36*
X374231192Y-94039974D02*
G01*
X374052192Y-94039974D01*
X374052192Y-93413974D01*
X374231192Y-93413974D01*
X374231192Y-94039974D01*
G37*
X374631192Y-90959974D02*
X374452192Y-90959974D01*
X374452192Y-90333974D01*
X374631192Y-90333974D01*
X374631192Y-90959974D01*
G36*
X374631192Y-90959974D02*
G01*
X374452192Y-90959974D01*
X374452192Y-90333974D01*
X374631192Y-90333974D01*
X374631192Y-90959974D01*
G37*
X374631192Y-94039974D02*
X374452192Y-94039974D01*
X374452192Y-93413974D01*
X374631192Y-93413974D01*
X374631192Y-94039974D01*
G36*
X374631192Y-94039974D02*
G01*
X374452192Y-94039974D01*
X374452192Y-93413974D01*
X374631192Y-93413974D01*
X374631192Y-94039974D01*
G37*
X375031192Y-90959974D02*
X374852192Y-90959974D01*
X374852192Y-90333974D01*
X375031192Y-90333974D01*
X375031192Y-90959974D01*
G36*
X375031192Y-90959974D02*
G01*
X374852192Y-90959974D01*
X374852192Y-90333974D01*
X375031192Y-90333974D01*
X375031192Y-90959974D01*
G37*
X375031192Y-94039974D02*
X374852192Y-94039974D01*
X374852192Y-93413974D01*
X375031192Y-93413974D01*
X375031192Y-94039974D01*
G36*
X375031192Y-94039974D02*
G01*
X374852192Y-94039974D01*
X374852192Y-93413974D01*
X375031192Y-93413974D01*
X375031192Y-94039974D01*
G37*
X375431192Y-90959974D02*
X375252192Y-90959974D01*
X375252192Y-90333974D01*
X375431192Y-90333974D01*
X375431192Y-90959974D01*
G36*
X375431192Y-90959974D02*
G01*
X375252192Y-90959974D01*
X375252192Y-90333974D01*
X375431192Y-90333974D01*
X375431192Y-90959974D01*
G37*
X375431192Y-94039974D02*
X375252192Y-94039974D01*
X375252192Y-93413974D01*
X375431192Y-93413974D01*
X375431192Y-94039974D01*
G36*
X375431192Y-94039974D02*
G01*
X375252192Y-94039974D01*
X375252192Y-93413974D01*
X375431192Y-93413974D01*
X375431192Y-94039974D01*
G37*
X375831192Y-90959974D02*
X375652192Y-90959974D01*
X375652192Y-90333974D01*
X375831192Y-90333974D01*
X375831192Y-90959974D01*
G36*
X375831192Y-90959974D02*
G01*
X375652192Y-90959974D01*
X375652192Y-90333974D01*
X375831192Y-90333974D01*
X375831192Y-90959974D01*
G37*
X375831192Y-94039974D02*
X375652192Y-94039974D01*
X375652192Y-93413974D01*
X375831192Y-93413974D01*
X375831192Y-94039974D01*
G36*
X375831192Y-94039974D02*
G01*
X375652192Y-94039974D01*
X375652192Y-93413974D01*
X375831192Y-93413974D01*
X375831192Y-94039974D01*
G37*
X376231192Y-90959974D02*
X376052192Y-90959974D01*
X376052192Y-90333974D01*
X376231192Y-90333974D01*
X376231192Y-90959974D01*
G36*
X376231192Y-90959974D02*
G01*
X376052192Y-90959974D01*
X376052192Y-90333974D01*
X376231192Y-90333974D01*
X376231192Y-90959974D01*
G37*
X376231192Y-94039974D02*
X376052192Y-94039974D01*
X376052192Y-93413974D01*
X376231192Y-93413974D01*
X376231192Y-94039974D01*
G36*
X376231192Y-94039974D02*
G01*
X376052192Y-94039974D01*
X376052192Y-93413974D01*
X376231192Y-93413974D01*
X376231192Y-94039974D01*
G37*
X376631192Y-90959974D02*
X376452192Y-90959974D01*
X376452192Y-90333974D01*
X376631192Y-90333974D01*
X376631192Y-90959974D01*
G36*
X376631192Y-90959974D02*
G01*
X376452192Y-90959974D01*
X376452192Y-90333974D01*
X376631192Y-90333974D01*
X376631192Y-90959974D01*
G37*
X376631192Y-94039974D02*
X376452192Y-94039974D01*
X376452192Y-93413974D01*
X376631192Y-93413974D01*
X376631192Y-94039974D01*
G36*
X376631192Y-94039974D02*
G01*
X376452192Y-94039974D01*
X376452192Y-93413974D01*
X376631192Y-93413974D01*
X376631192Y-94039974D01*
G37*
X377031192Y-90959974D02*
X376852192Y-90959974D01*
X376852192Y-90333974D01*
X377031192Y-90333974D01*
X377031192Y-90959974D01*
G36*
X377031192Y-90959974D02*
G01*
X376852192Y-90959974D01*
X376852192Y-90333974D01*
X377031192Y-90333974D01*
X377031192Y-90959974D01*
G37*
X377031192Y-94039974D02*
X376852192Y-94039974D01*
X376852192Y-93413974D01*
X377031192Y-93413974D01*
X377031192Y-94039974D01*
G36*
X377031192Y-94039974D02*
G01*
X376852192Y-94039974D01*
X376852192Y-93413974D01*
X377031192Y-93413974D01*
X377031192Y-94039974D01*
G37*
X377431192Y-90959974D02*
X377252192Y-90959974D01*
X377252192Y-90333974D01*
X377431192Y-90333974D01*
X377431192Y-90959974D01*
G36*
X377431192Y-90959974D02*
G01*
X377252192Y-90959974D01*
X377252192Y-90333974D01*
X377431192Y-90333974D01*
X377431192Y-90959974D01*
G37*
X377431192Y-94039974D02*
X377252192Y-94039974D01*
X377252192Y-93413974D01*
X377431192Y-93413974D01*
X377431192Y-94039974D01*
G36*
X377431192Y-94039974D02*
G01*
X377252192Y-94039974D01*
X377252192Y-93413974D01*
X377431192Y-93413974D01*
X377431192Y-94039974D01*
G37*
X377831192Y-90959974D02*
X377652192Y-90959974D01*
X377652192Y-90333974D01*
X377831192Y-90333974D01*
X377831192Y-90959974D01*
G36*
X377831192Y-90959974D02*
G01*
X377652192Y-90959974D01*
X377652192Y-90333974D01*
X377831192Y-90333974D01*
X377831192Y-90959974D01*
G37*
X377831192Y-94039974D02*
X377652192Y-94039974D01*
X377652192Y-93413974D01*
X377831192Y-93413974D01*
X377831192Y-94039974D01*
G36*
X377831192Y-94039974D02*
G01*
X377652192Y-94039974D01*
X377652192Y-93413974D01*
X377831192Y-93413974D01*
X377831192Y-94039974D01*
G37*
X378231192Y-90959974D02*
X378052192Y-90959974D01*
X378052192Y-90333974D01*
X378231192Y-90333974D01*
X378231192Y-90959974D01*
G36*
X378231192Y-90959974D02*
G01*
X378052192Y-90959974D01*
X378052192Y-90333974D01*
X378231192Y-90333974D01*
X378231192Y-90959974D01*
G37*
X378231192Y-94039974D02*
X378052192Y-94039974D01*
X378052192Y-93413974D01*
X378231192Y-93413974D01*
X378231192Y-94039974D01*
G36*
X378231192Y-94039974D02*
G01*
X378052192Y-94039974D01*
X378052192Y-93413974D01*
X378231192Y-93413974D01*
X378231192Y-94039974D01*
G37*
X378631192Y-90959974D02*
X378452192Y-90959974D01*
X378452192Y-90333974D01*
X378631192Y-90333974D01*
X378631192Y-90959974D01*
G36*
X378631192Y-90959974D02*
G01*
X378452192Y-90959974D01*
X378452192Y-90333974D01*
X378631192Y-90333974D01*
X378631192Y-90959974D01*
G37*
X378631192Y-94039974D02*
X378452192Y-94039974D01*
X378452192Y-93413974D01*
X378631192Y-93413974D01*
X378631192Y-94039974D01*
G36*
X378631192Y-94039974D02*
G01*
X378452192Y-94039974D01*
X378452192Y-93413974D01*
X378631192Y-93413974D01*
X378631192Y-94039974D01*
G37*
X379031192Y-90959974D02*
X378852192Y-90959974D01*
X378852192Y-90333974D01*
X379031192Y-90333974D01*
X379031192Y-90959974D01*
G36*
X379031192Y-90959974D02*
G01*
X378852192Y-90959974D01*
X378852192Y-90333974D01*
X379031192Y-90333974D01*
X379031192Y-90959974D01*
G37*
X379031192Y-94039974D02*
X378852192Y-94039974D01*
X378852192Y-93413974D01*
X379031192Y-93413974D01*
X379031192Y-94039974D01*
G36*
X379031192Y-94039974D02*
G01*
X378852192Y-94039974D01*
X378852192Y-93413974D01*
X379031192Y-93413974D01*
X379031192Y-94039974D01*
G37*
X379431192Y-90959974D02*
X379252192Y-90959974D01*
X379252192Y-90333974D01*
X379431192Y-90333974D01*
X379431192Y-90959974D01*
G36*
X379431192Y-90959974D02*
G01*
X379252192Y-90959974D01*
X379252192Y-90333974D01*
X379431192Y-90333974D01*
X379431192Y-90959974D01*
G37*
X379431192Y-94039974D02*
X379252192Y-94039974D01*
X379252192Y-93413974D01*
X379431192Y-93413974D01*
X379431192Y-94039974D01*
G36*
X379431192Y-94039974D02*
G01*
X379252192Y-94039974D01*
X379252192Y-93413974D01*
X379431192Y-93413974D01*
X379431192Y-94039974D01*
G37*
X379831192Y-90959974D02*
X379652192Y-90959974D01*
X379652192Y-90333974D01*
X379831192Y-90333974D01*
X379831192Y-90959974D01*
G36*
X379831192Y-90959974D02*
G01*
X379652192Y-90959974D01*
X379652192Y-90333974D01*
X379831192Y-90333974D01*
X379831192Y-90959974D01*
G37*
X379831192Y-94039974D02*
X379652192Y-94039974D01*
X379652192Y-93413974D01*
X379831192Y-93413974D01*
X379831192Y-94039974D01*
G36*
X379831192Y-94039974D02*
G01*
X379652192Y-94039974D01*
X379652192Y-93413974D01*
X379831192Y-93413974D01*
X379831192Y-94039974D01*
G37*
X380231192Y-90959974D02*
X380052192Y-90959974D01*
X380052192Y-90333974D01*
X380231192Y-90333974D01*
X380231192Y-90959974D01*
G36*
X380231192Y-90959974D02*
G01*
X380052192Y-90959974D01*
X380052192Y-90333974D01*
X380231192Y-90333974D01*
X380231192Y-90959974D01*
G37*
X380231192Y-94039974D02*
X380052192Y-94039974D01*
X380052192Y-93413974D01*
X380231192Y-93413974D01*
X380231192Y-94039974D01*
G36*
X380231192Y-94039974D02*
G01*
X380052192Y-94039974D01*
X380052192Y-93413974D01*
X380231192Y-93413974D01*
X380231192Y-94039974D01*
G37*
X380631192Y-90959974D02*
X380452192Y-90959974D01*
X380452192Y-90333974D01*
X380631192Y-90333974D01*
X380631192Y-90959974D01*
G36*
X380631192Y-90959974D02*
G01*
X380452192Y-90959974D01*
X380452192Y-90333974D01*
X380631192Y-90333974D01*
X380631192Y-90959974D01*
G37*
X380631192Y-94039974D02*
X380452192Y-94039974D01*
X380452192Y-93413974D01*
X380631192Y-93413974D01*
X380631192Y-94039974D01*
G36*
X380631192Y-94039974D02*
G01*
X380452192Y-94039974D01*
X380452192Y-93413974D01*
X380631192Y-93413974D01*
X380631192Y-94039974D01*
G37*
X381031192Y-90959974D02*
X380852192Y-90959974D01*
X380852192Y-90333974D01*
X381031192Y-90333974D01*
X381031192Y-90959974D01*
G36*
X381031192Y-90959974D02*
G01*
X380852192Y-90959974D01*
X380852192Y-90333974D01*
X381031192Y-90333974D01*
X381031192Y-90959974D01*
G37*
X381031192Y-94039974D02*
X380852192Y-94039974D01*
X380852192Y-93413974D01*
X381031192Y-93413974D01*
X381031192Y-94039974D01*
G36*
X381031192Y-94039974D02*
G01*
X380852192Y-94039974D01*
X380852192Y-93413974D01*
X381031192Y-93413974D01*
X381031192Y-94039974D01*
G37*
X381431192Y-90959974D02*
X381252192Y-90959974D01*
X381252192Y-90333974D01*
X381431192Y-90333974D01*
X381431192Y-90959974D01*
G36*
X381431192Y-90959974D02*
G01*
X381252192Y-90959974D01*
X381252192Y-90333974D01*
X381431192Y-90333974D01*
X381431192Y-90959974D01*
G37*
X381431192Y-94039974D02*
X381252192Y-94039974D01*
X381252192Y-93413974D01*
X381431192Y-93413974D01*
X381431192Y-94039974D01*
G36*
X381431192Y-94039974D02*
G01*
X381252192Y-94039974D01*
X381252192Y-93413974D01*
X381431192Y-93413974D01*
X381431192Y-94039974D01*
G37*
X381831192Y-90959974D02*
X381652192Y-90959974D01*
X381652192Y-90333974D01*
X381831192Y-90333974D01*
X381831192Y-90959974D01*
G36*
X381831192Y-90959974D02*
G01*
X381652192Y-90959974D01*
X381652192Y-90333974D01*
X381831192Y-90333974D01*
X381831192Y-90959974D01*
G37*
X381831192Y-94039974D02*
X381652192Y-94039974D01*
X381652192Y-93413974D01*
X381831192Y-93413974D01*
X381831192Y-94039974D01*
G36*
X381831192Y-94039974D02*
G01*
X381652192Y-94039974D01*
X381652192Y-93413974D01*
X381831192Y-93413974D01*
X381831192Y-94039974D01*
G37*
X382231192Y-90959974D02*
X382052192Y-90959974D01*
X382052192Y-90333974D01*
X382231192Y-90333974D01*
X382231192Y-90959974D01*
G36*
X382231192Y-90959974D02*
G01*
X382052192Y-90959974D01*
X382052192Y-90333974D01*
X382231192Y-90333974D01*
X382231192Y-90959974D01*
G37*
X382231192Y-94039974D02*
X382052192Y-94039974D01*
X382052192Y-93413974D01*
X382231192Y-93413974D01*
X382231192Y-94039974D01*
G36*
X382231192Y-94039974D02*
G01*
X382052192Y-94039974D01*
X382052192Y-93413974D01*
X382231192Y-93413974D01*
X382231192Y-94039974D01*
G37*
X382631192Y-90959974D02*
X382452192Y-90959974D01*
X382452192Y-90333974D01*
X382631192Y-90333974D01*
X382631192Y-90959974D01*
G36*
X382631192Y-90959974D02*
G01*
X382452192Y-90959974D01*
X382452192Y-90333974D01*
X382631192Y-90333974D01*
X382631192Y-90959974D01*
G37*
X382631192Y-94039974D02*
X382452192Y-94039974D01*
X382452192Y-93413974D01*
X382631192Y-93413974D01*
X382631192Y-94039974D01*
G36*
X382631192Y-94039974D02*
G01*
X382452192Y-94039974D01*
X382452192Y-93413974D01*
X382631192Y-93413974D01*
X382631192Y-94039974D01*
G37*
X383031192Y-90959974D02*
X382852192Y-90959974D01*
X382852192Y-90333974D01*
X383031192Y-90333974D01*
X383031192Y-90959974D01*
G36*
X383031192Y-90959974D02*
G01*
X382852192Y-90959974D01*
X382852192Y-90333974D01*
X383031192Y-90333974D01*
X383031192Y-90959974D01*
G37*
X383031192Y-94039974D02*
X382852192Y-94039974D01*
X382852192Y-93413974D01*
X383031192Y-93413974D01*
X383031192Y-94039974D01*
G36*
X383031192Y-94039974D02*
G01*
X382852192Y-94039974D01*
X382852192Y-93413974D01*
X383031192Y-93413974D01*
X383031192Y-94039974D01*
G37*
X383431192Y-90959974D02*
X383252192Y-90959974D01*
X383252192Y-90333974D01*
X383431192Y-90333974D01*
X383431192Y-90959974D01*
G36*
X383431192Y-90959974D02*
G01*
X383252192Y-90959974D01*
X383252192Y-90333974D01*
X383431192Y-90333974D01*
X383431192Y-90959974D01*
G37*
X383431192Y-94039974D02*
X383252192Y-94039974D01*
X383252192Y-93413974D01*
X383431192Y-93413974D01*
X383431192Y-94039974D01*
G36*
X383431192Y-94039974D02*
G01*
X383252192Y-94039974D01*
X383252192Y-93413974D01*
X383431192Y-93413974D01*
X383431192Y-94039974D01*
G37*
X383831192Y-90959974D02*
X383652192Y-90959974D01*
X383652192Y-90333974D01*
X383831192Y-90333974D01*
X383831192Y-90959974D01*
G36*
X383831192Y-90959974D02*
G01*
X383652192Y-90959974D01*
X383652192Y-90333974D01*
X383831192Y-90333974D01*
X383831192Y-90959974D01*
G37*
X383831192Y-94039974D02*
X383652192Y-94039974D01*
X383652192Y-93413974D01*
X383831192Y-93413974D01*
X383831192Y-94039974D01*
G36*
X383831192Y-94039974D02*
G01*
X383652192Y-94039974D01*
X383652192Y-93413974D01*
X383831192Y-93413974D01*
X383831192Y-94039974D01*
G37*
X384231192Y-90959974D02*
X384052192Y-90959974D01*
X384052192Y-90333974D01*
X384231192Y-90333974D01*
X384231192Y-90959974D01*
G36*
X384231192Y-90959974D02*
G01*
X384052192Y-90959974D01*
X384052192Y-90333974D01*
X384231192Y-90333974D01*
X384231192Y-90959974D01*
G37*
X384231192Y-94039974D02*
X384052192Y-94039974D01*
X384052192Y-93413974D01*
X384231192Y-93413974D01*
X384231192Y-94039974D01*
G36*
X384231192Y-94039974D02*
G01*
X384052192Y-94039974D01*
X384052192Y-93413974D01*
X384231192Y-93413974D01*
X384231192Y-94039974D01*
G37*
X384631192Y-90959974D02*
X384452192Y-90959974D01*
X384452192Y-90333974D01*
X384631192Y-90333974D01*
X384631192Y-90959974D01*
G36*
X384631192Y-90959974D02*
G01*
X384452192Y-90959974D01*
X384452192Y-90333974D01*
X384631192Y-90333974D01*
X384631192Y-90959974D01*
G37*
X384631192Y-94039974D02*
X384452192Y-94039974D01*
X384452192Y-93413974D01*
X384631192Y-93413974D01*
X384631192Y-94039974D01*
G36*
X384631192Y-94039974D02*
G01*
X384452192Y-94039974D01*
X384452192Y-93413974D01*
X384631192Y-93413974D01*
X384631192Y-94039974D01*
G37*
X385031192Y-90959974D02*
X384852192Y-90959974D01*
X384852192Y-90333974D01*
X385031192Y-90333974D01*
X385031192Y-90959974D01*
G36*
X385031192Y-90959974D02*
G01*
X384852192Y-90959974D01*
X384852192Y-90333974D01*
X385031192Y-90333974D01*
X385031192Y-90959974D01*
G37*
X385031192Y-94039974D02*
X384852192Y-94039974D01*
X384852192Y-93413974D01*
X385031192Y-93413974D01*
X385031192Y-94039974D01*
G36*
X385031192Y-94039974D02*
G01*
X384852192Y-94039974D01*
X384852192Y-93413974D01*
X385031192Y-93413974D01*
X385031192Y-94039974D01*
G37*
X385431192Y-90959974D02*
X385252192Y-90959974D01*
X385252192Y-90333974D01*
X385431192Y-90333974D01*
X385431192Y-90959974D01*
G36*
X385431192Y-90959974D02*
G01*
X385252192Y-90959974D01*
X385252192Y-90333974D01*
X385431192Y-90333974D01*
X385431192Y-90959974D01*
G37*
X385431192Y-94039974D02*
X385252192Y-94039974D01*
X385252192Y-93413974D01*
X385431192Y-93413974D01*
X385431192Y-94039974D01*
G36*
X385431192Y-94039974D02*
G01*
X385252192Y-94039974D01*
X385252192Y-93413974D01*
X385431192Y-93413974D01*
X385431192Y-94039974D01*
G37*
X385831192Y-90959974D02*
X385652192Y-90959974D01*
X385652192Y-90333974D01*
X385831192Y-90333974D01*
X385831192Y-90959974D01*
G36*
X385831192Y-90959974D02*
G01*
X385652192Y-90959974D01*
X385652192Y-90333974D01*
X385831192Y-90333974D01*
X385831192Y-90959974D01*
G37*
X385831192Y-94039974D02*
X385652192Y-94039974D01*
X385652192Y-93413974D01*
X385831192Y-93413974D01*
X385831192Y-94039974D01*
G36*
X385831192Y-94039974D02*
G01*
X385652192Y-94039974D01*
X385652192Y-93413974D01*
X385831192Y-93413974D01*
X385831192Y-94039974D01*
G37*
X386231192Y-90959974D02*
X386052192Y-90959974D01*
X386052192Y-90333974D01*
X386231192Y-90333974D01*
X386231192Y-90959974D01*
G36*
X386231192Y-90959974D02*
G01*
X386052192Y-90959974D01*
X386052192Y-90333974D01*
X386231192Y-90333974D01*
X386231192Y-90959974D01*
G37*
X386231192Y-94039974D02*
X386052192Y-94039974D01*
X386052192Y-93413974D01*
X386231192Y-93413974D01*
X386231192Y-94039974D01*
G36*
X386231192Y-94039974D02*
G01*
X386052192Y-94039974D01*
X386052192Y-93413974D01*
X386231192Y-93413974D01*
X386231192Y-94039974D01*
G37*
X386631192Y-90959974D02*
X386452192Y-90959974D01*
X386452192Y-90333974D01*
X386631192Y-90333974D01*
X386631192Y-90959974D01*
G36*
X386631192Y-90959974D02*
G01*
X386452192Y-90959974D01*
X386452192Y-90333974D01*
X386631192Y-90333974D01*
X386631192Y-90959974D01*
G37*
X386631192Y-94039974D02*
X386452192Y-94039974D01*
X386452192Y-93413974D01*
X386631192Y-93413974D01*
X386631192Y-94039974D01*
G36*
X386631192Y-94039974D02*
G01*
X386452192Y-94039974D01*
X386452192Y-93413974D01*
X386631192Y-93413974D01*
X386631192Y-94039974D01*
G37*
X387031192Y-90959974D02*
X386852192Y-90959974D01*
X386852192Y-90333974D01*
X387031192Y-90333974D01*
X387031192Y-90959974D01*
G36*
X387031192Y-90959974D02*
G01*
X386852192Y-90959974D01*
X386852192Y-90333974D01*
X387031192Y-90333974D01*
X387031192Y-90959974D01*
G37*
X387031192Y-94039974D02*
X386852192Y-94039974D01*
X386852192Y-93413974D01*
X387031192Y-93413974D01*
X387031192Y-94039974D01*
G36*
X387031192Y-94039974D02*
G01*
X386852192Y-94039974D01*
X386852192Y-93413974D01*
X387031192Y-93413974D01*
X387031192Y-94039974D01*
G37*
X387431192Y-90959974D02*
X387252192Y-90959974D01*
X387252192Y-90333974D01*
X387431192Y-90333974D01*
X387431192Y-90959974D01*
G36*
X387431192Y-90959974D02*
G01*
X387252192Y-90959974D01*
X387252192Y-90333974D01*
X387431192Y-90333974D01*
X387431192Y-90959974D01*
G37*
X387431192Y-94039974D02*
X387252192Y-94039974D01*
X387252192Y-93413974D01*
X387431192Y-93413974D01*
X387431192Y-94039974D01*
G36*
X387431192Y-94039974D02*
G01*
X387252192Y-94039974D01*
X387252192Y-93413974D01*
X387431192Y-93413974D01*
X387431192Y-94039974D01*
G37*
X387831192Y-90959974D02*
X387652192Y-90959974D01*
X387652192Y-90333974D01*
X387831192Y-90333974D01*
X387831192Y-90959974D01*
G36*
X387831192Y-90959974D02*
G01*
X387652192Y-90959974D01*
X387652192Y-90333974D01*
X387831192Y-90333974D01*
X387831192Y-90959974D01*
G37*
X387831192Y-94039974D02*
X387652192Y-94039974D01*
X387652192Y-93413974D01*
X387831192Y-93413974D01*
X387831192Y-94039974D01*
G36*
X387831192Y-94039974D02*
G01*
X387652192Y-94039974D01*
X387652192Y-93413974D01*
X387831192Y-93413974D01*
X387831192Y-94039974D01*
G37*
X388231192Y-90959974D02*
X388052192Y-90959974D01*
X388052192Y-90333974D01*
X388231192Y-90333974D01*
X388231192Y-90959974D01*
G36*
X388231192Y-90959974D02*
G01*
X388052192Y-90959974D01*
X388052192Y-90333974D01*
X388231192Y-90333974D01*
X388231192Y-90959974D01*
G37*
X388231192Y-94039974D02*
X388052192Y-94039974D01*
X388052192Y-93413974D01*
X388231192Y-93413974D01*
X388231192Y-94039974D01*
G36*
X388231192Y-94039974D02*
G01*
X388052192Y-94039974D01*
X388052192Y-93413974D01*
X388231192Y-93413974D01*
X388231192Y-94039974D01*
G37*
X388631192Y-90959974D02*
X388452192Y-90959974D01*
X388452192Y-90333974D01*
X388631192Y-90333974D01*
X388631192Y-90959974D01*
G36*
X388631192Y-90959974D02*
G01*
X388452192Y-90959974D01*
X388452192Y-90333974D01*
X388631192Y-90333974D01*
X388631192Y-90959974D01*
G37*
X388631192Y-94039974D02*
X388452192Y-94039974D01*
X388452192Y-93413974D01*
X388631192Y-93413974D01*
X388631192Y-94039974D01*
G36*
X388631192Y-94039974D02*
G01*
X388452192Y-94039974D01*
X388452192Y-93413974D01*
X388631192Y-93413974D01*
X388631192Y-94039974D01*
G37*
X389031192Y-90959974D02*
X388852192Y-90959974D01*
X388852192Y-90333974D01*
X389031192Y-90333974D01*
X389031192Y-90959974D01*
G36*
X389031192Y-90959974D02*
G01*
X388852192Y-90959974D01*
X388852192Y-90333974D01*
X389031192Y-90333974D01*
X389031192Y-90959974D01*
G37*
X389031192Y-94039974D02*
X388852192Y-94039974D01*
X388852192Y-93413974D01*
X389031192Y-93413974D01*
X389031192Y-94039974D01*
G36*
X389031192Y-94039974D02*
G01*
X388852192Y-94039974D01*
X388852192Y-93413974D01*
X389031192Y-93413974D01*
X389031192Y-94039974D01*
G37*
X389431192Y-90959974D02*
X389252192Y-90959974D01*
X389252192Y-90333974D01*
X389431192Y-90333974D01*
X389431192Y-90959974D01*
G36*
X389431192Y-90959974D02*
G01*
X389252192Y-90959974D01*
X389252192Y-90333974D01*
X389431192Y-90333974D01*
X389431192Y-90959974D01*
G37*
X389431192Y-94039974D02*
X389252192Y-94039974D01*
X389252192Y-93413974D01*
X389431192Y-93413974D01*
X389431192Y-94039974D01*
G36*
X389431192Y-94039974D02*
G01*
X389252192Y-94039974D01*
X389252192Y-93413974D01*
X389431192Y-93413974D01*
X389431192Y-94039974D01*
G37*
X389831192Y-90959974D02*
X389652192Y-90959974D01*
X389652192Y-90333974D01*
X389831192Y-90333974D01*
X389831192Y-90959974D01*
G36*
X389831192Y-90959974D02*
G01*
X389652192Y-90959974D01*
X389652192Y-90333974D01*
X389831192Y-90333974D01*
X389831192Y-90959974D01*
G37*
X389831192Y-94039974D02*
X389652192Y-94039974D01*
X389652192Y-93413974D01*
X389831192Y-93413974D01*
X389831192Y-94039974D01*
G36*
X389831192Y-94039974D02*
G01*
X389652192Y-94039974D01*
X389652192Y-93413974D01*
X389831192Y-93413974D01*
X389831192Y-94039974D01*
G37*
X390231192Y-90959974D02*
X390052192Y-90959974D01*
X390052192Y-90333974D01*
X390231192Y-90333974D01*
X390231192Y-90959974D01*
G36*
X390231192Y-90959974D02*
G01*
X390052192Y-90959974D01*
X390052192Y-90333974D01*
X390231192Y-90333974D01*
X390231192Y-90959974D01*
G37*
X390231192Y-94039974D02*
X390052192Y-94039974D01*
X390052192Y-93413974D01*
X390231192Y-93413974D01*
X390231192Y-94039974D01*
G36*
X390231192Y-94039974D02*
G01*
X390052192Y-94039974D01*
X390052192Y-93413974D01*
X390231192Y-93413974D01*
X390231192Y-94039974D01*
G37*
G04 #@! TO.C,J6*
X356594892Y-48125762D02*
X355968892Y-48125762D01*
X355968892Y-47946762D01*
X356594892Y-47946762D01*
X356594892Y-48125762D01*
G36*
X356594892Y-48125762D02*
G01*
X355968892Y-48125762D01*
X355968892Y-47946762D01*
X356594892Y-47946762D01*
X356594892Y-48125762D01*
G37*
X356594892Y-48525762D02*
X355968892Y-48525762D01*
X355968892Y-48346762D01*
X356594892Y-48346762D01*
X356594892Y-48525762D01*
G36*
X356594892Y-48525762D02*
G01*
X355968892Y-48525762D01*
X355968892Y-48346762D01*
X356594892Y-48346762D01*
X356594892Y-48525762D01*
G37*
X356594892Y-48925762D02*
X355968892Y-48925762D01*
X355968892Y-48746762D01*
X356594892Y-48746762D01*
X356594892Y-48925762D01*
G36*
X356594892Y-48925762D02*
G01*
X355968892Y-48925762D01*
X355968892Y-48746762D01*
X356594892Y-48746762D01*
X356594892Y-48925762D01*
G37*
X356594892Y-49325762D02*
X355968892Y-49325762D01*
X355968892Y-49146762D01*
X356594892Y-49146762D01*
X356594892Y-49325762D01*
G36*
X356594892Y-49325762D02*
G01*
X355968892Y-49325762D01*
X355968892Y-49146762D01*
X356594892Y-49146762D01*
X356594892Y-49325762D01*
G37*
X356594892Y-49725762D02*
X355968892Y-49725762D01*
X355968892Y-49546762D01*
X356594892Y-49546762D01*
X356594892Y-49725762D01*
G36*
X356594892Y-49725762D02*
G01*
X355968892Y-49725762D01*
X355968892Y-49546762D01*
X356594892Y-49546762D01*
X356594892Y-49725762D01*
G37*
X356594892Y-50125762D02*
X355968892Y-50125762D01*
X355968892Y-49946762D01*
X356594892Y-49946762D01*
X356594892Y-50125762D01*
G36*
X356594892Y-50125762D02*
G01*
X355968892Y-50125762D01*
X355968892Y-49946762D01*
X356594892Y-49946762D01*
X356594892Y-50125762D01*
G37*
X356594892Y-50525762D02*
X355968892Y-50525762D01*
X355968892Y-50346762D01*
X356594892Y-50346762D01*
X356594892Y-50525762D01*
G36*
X356594892Y-50525762D02*
G01*
X355968892Y-50525762D01*
X355968892Y-50346762D01*
X356594892Y-50346762D01*
X356594892Y-50525762D01*
G37*
X356594892Y-50925762D02*
X355968892Y-50925762D01*
X355968892Y-50746762D01*
X356594892Y-50746762D01*
X356594892Y-50925762D01*
G36*
X356594892Y-50925762D02*
G01*
X355968892Y-50925762D01*
X355968892Y-50746762D01*
X356594892Y-50746762D01*
X356594892Y-50925762D01*
G37*
X356594892Y-51325762D02*
X355968892Y-51325762D01*
X355968892Y-51146762D01*
X356594892Y-51146762D01*
X356594892Y-51325762D01*
G36*
X356594892Y-51325762D02*
G01*
X355968892Y-51325762D01*
X355968892Y-51146762D01*
X356594892Y-51146762D01*
X356594892Y-51325762D01*
G37*
X356594892Y-51725762D02*
X355968892Y-51725762D01*
X355968892Y-51546762D01*
X356594892Y-51546762D01*
X356594892Y-51725762D01*
G36*
X356594892Y-51725762D02*
G01*
X355968892Y-51725762D01*
X355968892Y-51546762D01*
X356594892Y-51546762D01*
X356594892Y-51725762D01*
G37*
X356594892Y-52125762D02*
X355968892Y-52125762D01*
X355968892Y-51946762D01*
X356594892Y-51946762D01*
X356594892Y-52125762D01*
G36*
X356594892Y-52125762D02*
G01*
X355968892Y-52125762D01*
X355968892Y-51946762D01*
X356594892Y-51946762D01*
X356594892Y-52125762D01*
G37*
X356594892Y-52525762D02*
X355968892Y-52525762D01*
X355968892Y-52346762D01*
X356594892Y-52346762D01*
X356594892Y-52525762D01*
G36*
X356594892Y-52525762D02*
G01*
X355968892Y-52525762D01*
X355968892Y-52346762D01*
X356594892Y-52346762D01*
X356594892Y-52525762D01*
G37*
X356594892Y-52925762D02*
X355968892Y-52925762D01*
X355968892Y-52746762D01*
X356594892Y-52746762D01*
X356594892Y-52925762D01*
G36*
X356594892Y-52925762D02*
G01*
X355968892Y-52925762D01*
X355968892Y-52746762D01*
X356594892Y-52746762D01*
X356594892Y-52925762D01*
G37*
X356594892Y-53325762D02*
X355968892Y-53325762D01*
X355968892Y-53146762D01*
X356594892Y-53146762D01*
X356594892Y-53325762D01*
G36*
X356594892Y-53325762D02*
G01*
X355968892Y-53325762D01*
X355968892Y-53146762D01*
X356594892Y-53146762D01*
X356594892Y-53325762D01*
G37*
X356594892Y-53725762D02*
X355968892Y-53725762D01*
X355968892Y-53546762D01*
X356594892Y-53546762D01*
X356594892Y-53725762D01*
G36*
X356594892Y-53725762D02*
G01*
X355968892Y-53725762D01*
X355968892Y-53546762D01*
X356594892Y-53546762D01*
X356594892Y-53725762D01*
G37*
X356594892Y-54125762D02*
X355968892Y-54125762D01*
X355968892Y-53946762D01*
X356594892Y-53946762D01*
X356594892Y-54125762D01*
G36*
X356594892Y-54125762D02*
G01*
X355968892Y-54125762D01*
X355968892Y-53946762D01*
X356594892Y-53946762D01*
X356594892Y-54125762D01*
G37*
X356594892Y-54525762D02*
X355968892Y-54525762D01*
X355968892Y-54346762D01*
X356594892Y-54346762D01*
X356594892Y-54525762D01*
G36*
X356594892Y-54525762D02*
G01*
X355968892Y-54525762D01*
X355968892Y-54346762D01*
X356594892Y-54346762D01*
X356594892Y-54525762D01*
G37*
X356594892Y-54925762D02*
X355968892Y-54925762D01*
X355968892Y-54746762D01*
X356594892Y-54746762D01*
X356594892Y-54925762D01*
G36*
X356594892Y-54925762D02*
G01*
X355968892Y-54925762D01*
X355968892Y-54746762D01*
X356594892Y-54746762D01*
X356594892Y-54925762D01*
G37*
X356594892Y-55325762D02*
X355968892Y-55325762D01*
X355968892Y-55146762D01*
X356594892Y-55146762D01*
X356594892Y-55325762D01*
G36*
X356594892Y-55325762D02*
G01*
X355968892Y-55325762D01*
X355968892Y-55146762D01*
X356594892Y-55146762D01*
X356594892Y-55325762D01*
G37*
X356594892Y-55725762D02*
X355968892Y-55725762D01*
X355968892Y-55546762D01*
X356594892Y-55546762D01*
X356594892Y-55725762D01*
G36*
X356594892Y-55725762D02*
G01*
X355968892Y-55725762D01*
X355968892Y-55546762D01*
X356594892Y-55546762D01*
X356594892Y-55725762D01*
G37*
X356594892Y-56125762D02*
X355968892Y-56125762D01*
X355968892Y-55946762D01*
X356594892Y-55946762D01*
X356594892Y-56125762D01*
G36*
X356594892Y-56125762D02*
G01*
X355968892Y-56125762D01*
X355968892Y-55946762D01*
X356594892Y-55946762D01*
X356594892Y-56125762D01*
G37*
X356594892Y-56525762D02*
X355968892Y-56525762D01*
X355968892Y-56346762D01*
X356594892Y-56346762D01*
X356594892Y-56525762D01*
G36*
X356594892Y-56525762D02*
G01*
X355968892Y-56525762D01*
X355968892Y-56346762D01*
X356594892Y-56346762D01*
X356594892Y-56525762D01*
G37*
X356594892Y-56925762D02*
X355968892Y-56925762D01*
X355968892Y-56746762D01*
X356594892Y-56746762D01*
X356594892Y-56925762D01*
G36*
X356594892Y-56925762D02*
G01*
X355968892Y-56925762D01*
X355968892Y-56746762D01*
X356594892Y-56746762D01*
X356594892Y-56925762D01*
G37*
X356594892Y-57325762D02*
X355968892Y-57325762D01*
X355968892Y-57146762D01*
X356594892Y-57146762D01*
X356594892Y-57325762D01*
G36*
X356594892Y-57325762D02*
G01*
X355968892Y-57325762D01*
X355968892Y-57146762D01*
X356594892Y-57146762D01*
X356594892Y-57325762D01*
G37*
X356594892Y-57725762D02*
X355968892Y-57725762D01*
X355968892Y-57546762D01*
X356594892Y-57546762D01*
X356594892Y-57725762D01*
G36*
X356594892Y-57725762D02*
G01*
X355968892Y-57725762D01*
X355968892Y-57546762D01*
X356594892Y-57546762D01*
X356594892Y-57725762D01*
G37*
X356594892Y-58125762D02*
X355968892Y-58125762D01*
X355968892Y-57946762D01*
X356594892Y-57946762D01*
X356594892Y-58125762D01*
G36*
X356594892Y-58125762D02*
G01*
X355968892Y-58125762D01*
X355968892Y-57946762D01*
X356594892Y-57946762D01*
X356594892Y-58125762D01*
G37*
X356594892Y-58525762D02*
X355968892Y-58525762D01*
X355968892Y-58346762D01*
X356594892Y-58346762D01*
X356594892Y-58525762D01*
G36*
X356594892Y-58525762D02*
G01*
X355968892Y-58525762D01*
X355968892Y-58346762D01*
X356594892Y-58346762D01*
X356594892Y-58525762D01*
G37*
X356594892Y-58925762D02*
X355968892Y-58925762D01*
X355968892Y-58746762D01*
X356594892Y-58746762D01*
X356594892Y-58925762D01*
G36*
X356594892Y-58925762D02*
G01*
X355968892Y-58925762D01*
X355968892Y-58746762D01*
X356594892Y-58746762D01*
X356594892Y-58925762D01*
G37*
X356594892Y-59325762D02*
X355968892Y-59325762D01*
X355968892Y-59146762D01*
X356594892Y-59146762D01*
X356594892Y-59325762D01*
G36*
X356594892Y-59325762D02*
G01*
X355968892Y-59325762D01*
X355968892Y-59146762D01*
X356594892Y-59146762D01*
X356594892Y-59325762D01*
G37*
X356594892Y-59725762D02*
X355968892Y-59725762D01*
X355968892Y-59546762D01*
X356594892Y-59546762D01*
X356594892Y-59725762D01*
G36*
X356594892Y-59725762D02*
G01*
X355968892Y-59725762D01*
X355968892Y-59546762D01*
X356594892Y-59546762D01*
X356594892Y-59725762D01*
G37*
X356594892Y-60125762D02*
X355968892Y-60125762D01*
X355968892Y-59946762D01*
X356594892Y-59946762D01*
X356594892Y-60125762D01*
G36*
X356594892Y-60125762D02*
G01*
X355968892Y-60125762D01*
X355968892Y-59946762D01*
X356594892Y-59946762D01*
X356594892Y-60125762D01*
G37*
X356594892Y-60525762D02*
X355968892Y-60525762D01*
X355968892Y-60346762D01*
X356594892Y-60346762D01*
X356594892Y-60525762D01*
G36*
X356594892Y-60525762D02*
G01*
X355968892Y-60525762D01*
X355968892Y-60346762D01*
X356594892Y-60346762D01*
X356594892Y-60525762D01*
G37*
X356594892Y-60925762D02*
X355968892Y-60925762D01*
X355968892Y-60746762D01*
X356594892Y-60746762D01*
X356594892Y-60925762D01*
G36*
X356594892Y-60925762D02*
G01*
X355968892Y-60925762D01*
X355968892Y-60746762D01*
X356594892Y-60746762D01*
X356594892Y-60925762D01*
G37*
X356594892Y-61325762D02*
X355968892Y-61325762D01*
X355968892Y-61146762D01*
X356594892Y-61146762D01*
X356594892Y-61325762D01*
G36*
X356594892Y-61325762D02*
G01*
X355968892Y-61325762D01*
X355968892Y-61146762D01*
X356594892Y-61146762D01*
X356594892Y-61325762D01*
G37*
X356594892Y-61725762D02*
X355968892Y-61725762D01*
X355968892Y-61546762D01*
X356594892Y-61546762D01*
X356594892Y-61725762D01*
G36*
X356594892Y-61725762D02*
G01*
X355968892Y-61725762D01*
X355968892Y-61546762D01*
X356594892Y-61546762D01*
X356594892Y-61725762D01*
G37*
X356594892Y-62125762D02*
X355968892Y-62125762D01*
X355968892Y-61946762D01*
X356594892Y-61946762D01*
X356594892Y-62125762D01*
G36*
X356594892Y-62125762D02*
G01*
X355968892Y-62125762D01*
X355968892Y-61946762D01*
X356594892Y-61946762D01*
X356594892Y-62125762D01*
G37*
X356594892Y-62525762D02*
X355968892Y-62525762D01*
X355968892Y-62346762D01*
X356594892Y-62346762D01*
X356594892Y-62525762D01*
G36*
X356594892Y-62525762D02*
G01*
X355968892Y-62525762D01*
X355968892Y-62346762D01*
X356594892Y-62346762D01*
X356594892Y-62525762D01*
G37*
X356594892Y-62925762D02*
X355968892Y-62925762D01*
X355968892Y-62746762D01*
X356594892Y-62746762D01*
X356594892Y-62925762D01*
G36*
X356594892Y-62925762D02*
G01*
X355968892Y-62925762D01*
X355968892Y-62746762D01*
X356594892Y-62746762D01*
X356594892Y-62925762D01*
G37*
X356594892Y-63325762D02*
X355968892Y-63325762D01*
X355968892Y-63146762D01*
X356594892Y-63146762D01*
X356594892Y-63325762D01*
G36*
X356594892Y-63325762D02*
G01*
X355968892Y-63325762D01*
X355968892Y-63146762D01*
X356594892Y-63146762D01*
X356594892Y-63325762D01*
G37*
X356594892Y-63725762D02*
X355968892Y-63725762D01*
X355968892Y-63546762D01*
X356594892Y-63546762D01*
X356594892Y-63725762D01*
G36*
X356594892Y-63725762D02*
G01*
X355968892Y-63725762D01*
X355968892Y-63546762D01*
X356594892Y-63546762D01*
X356594892Y-63725762D01*
G37*
X356594892Y-64125762D02*
X355968892Y-64125762D01*
X355968892Y-63946762D01*
X356594892Y-63946762D01*
X356594892Y-64125762D01*
G36*
X356594892Y-64125762D02*
G01*
X355968892Y-64125762D01*
X355968892Y-63946762D01*
X356594892Y-63946762D01*
X356594892Y-64125762D01*
G37*
X356594892Y-64525762D02*
X355968892Y-64525762D01*
X355968892Y-64346762D01*
X356594892Y-64346762D01*
X356594892Y-64525762D01*
G36*
X356594892Y-64525762D02*
G01*
X355968892Y-64525762D01*
X355968892Y-64346762D01*
X356594892Y-64346762D01*
X356594892Y-64525762D01*
G37*
X356594892Y-64925762D02*
X355968892Y-64925762D01*
X355968892Y-64746762D01*
X356594892Y-64746762D01*
X356594892Y-64925762D01*
G36*
X356594892Y-64925762D02*
G01*
X355968892Y-64925762D01*
X355968892Y-64746762D01*
X356594892Y-64746762D01*
X356594892Y-64925762D01*
G37*
X356594892Y-65325762D02*
X355968892Y-65325762D01*
X355968892Y-65146762D01*
X356594892Y-65146762D01*
X356594892Y-65325762D01*
G36*
X356594892Y-65325762D02*
G01*
X355968892Y-65325762D01*
X355968892Y-65146762D01*
X356594892Y-65146762D01*
X356594892Y-65325762D01*
G37*
X356594892Y-65725762D02*
X355968892Y-65725762D01*
X355968892Y-65546762D01*
X356594892Y-65546762D01*
X356594892Y-65725762D01*
G36*
X356594892Y-65725762D02*
G01*
X355968892Y-65725762D01*
X355968892Y-65546762D01*
X356594892Y-65546762D01*
X356594892Y-65725762D01*
G37*
X356594892Y-66125762D02*
X355968892Y-66125762D01*
X355968892Y-65946762D01*
X356594892Y-65946762D01*
X356594892Y-66125762D01*
G36*
X356594892Y-66125762D02*
G01*
X355968892Y-66125762D01*
X355968892Y-65946762D01*
X356594892Y-65946762D01*
X356594892Y-66125762D01*
G37*
X356594892Y-66525762D02*
X355968892Y-66525762D01*
X355968892Y-66346762D01*
X356594892Y-66346762D01*
X356594892Y-66525762D01*
G36*
X356594892Y-66525762D02*
G01*
X355968892Y-66525762D01*
X355968892Y-66346762D01*
X356594892Y-66346762D01*
X356594892Y-66525762D01*
G37*
X356594892Y-66925762D02*
X355968892Y-66925762D01*
X355968892Y-66746762D01*
X356594892Y-66746762D01*
X356594892Y-66925762D01*
G36*
X356594892Y-66925762D02*
G01*
X355968892Y-66925762D01*
X355968892Y-66746762D01*
X356594892Y-66746762D01*
X356594892Y-66925762D01*
G37*
X356594892Y-67325762D02*
X355968892Y-67325762D01*
X355968892Y-67146762D01*
X356594892Y-67146762D01*
X356594892Y-67325762D01*
G36*
X356594892Y-67325762D02*
G01*
X355968892Y-67325762D01*
X355968892Y-67146762D01*
X356594892Y-67146762D01*
X356594892Y-67325762D01*
G37*
X356594892Y-67725762D02*
X355968892Y-67725762D01*
X355968892Y-67546762D01*
X356594892Y-67546762D01*
X356594892Y-67725762D01*
G36*
X356594892Y-67725762D02*
G01*
X355968892Y-67725762D01*
X355968892Y-67546762D01*
X356594892Y-67546762D01*
X356594892Y-67725762D01*
G37*
X359674892Y-48125762D02*
X359048892Y-48125762D01*
X359048892Y-47946762D01*
X359674892Y-47946762D01*
X359674892Y-48125762D01*
G36*
X359674892Y-48125762D02*
G01*
X359048892Y-48125762D01*
X359048892Y-47946762D01*
X359674892Y-47946762D01*
X359674892Y-48125762D01*
G37*
X359674892Y-48525762D02*
X359048892Y-48525762D01*
X359048892Y-48346762D01*
X359674892Y-48346762D01*
X359674892Y-48525762D01*
G36*
X359674892Y-48525762D02*
G01*
X359048892Y-48525762D01*
X359048892Y-48346762D01*
X359674892Y-48346762D01*
X359674892Y-48525762D01*
G37*
X359674892Y-48925762D02*
X359048892Y-48925762D01*
X359048892Y-48746762D01*
X359674892Y-48746762D01*
X359674892Y-48925762D01*
G36*
X359674892Y-48925762D02*
G01*
X359048892Y-48925762D01*
X359048892Y-48746762D01*
X359674892Y-48746762D01*
X359674892Y-48925762D01*
G37*
X359674892Y-49325762D02*
X359048892Y-49325762D01*
X359048892Y-49146762D01*
X359674892Y-49146762D01*
X359674892Y-49325762D01*
G36*
X359674892Y-49325762D02*
G01*
X359048892Y-49325762D01*
X359048892Y-49146762D01*
X359674892Y-49146762D01*
X359674892Y-49325762D01*
G37*
X359674892Y-49725762D02*
X359048892Y-49725762D01*
X359048892Y-49546762D01*
X359674892Y-49546762D01*
X359674892Y-49725762D01*
G36*
X359674892Y-49725762D02*
G01*
X359048892Y-49725762D01*
X359048892Y-49546762D01*
X359674892Y-49546762D01*
X359674892Y-49725762D01*
G37*
X359674892Y-50125762D02*
X359048892Y-50125762D01*
X359048892Y-49946762D01*
X359674892Y-49946762D01*
X359674892Y-50125762D01*
G36*
X359674892Y-50125762D02*
G01*
X359048892Y-50125762D01*
X359048892Y-49946762D01*
X359674892Y-49946762D01*
X359674892Y-50125762D01*
G37*
X359674892Y-50525762D02*
X359048892Y-50525762D01*
X359048892Y-50346762D01*
X359674892Y-50346762D01*
X359674892Y-50525762D01*
G36*
X359674892Y-50525762D02*
G01*
X359048892Y-50525762D01*
X359048892Y-50346762D01*
X359674892Y-50346762D01*
X359674892Y-50525762D01*
G37*
X359674892Y-50925762D02*
X359048892Y-50925762D01*
X359048892Y-50746762D01*
X359674892Y-50746762D01*
X359674892Y-50925762D01*
G36*
X359674892Y-50925762D02*
G01*
X359048892Y-50925762D01*
X359048892Y-50746762D01*
X359674892Y-50746762D01*
X359674892Y-50925762D01*
G37*
X359674892Y-51325762D02*
X359048892Y-51325762D01*
X359048892Y-51146762D01*
X359674892Y-51146762D01*
X359674892Y-51325762D01*
G36*
X359674892Y-51325762D02*
G01*
X359048892Y-51325762D01*
X359048892Y-51146762D01*
X359674892Y-51146762D01*
X359674892Y-51325762D01*
G37*
X359674892Y-51725762D02*
X359048892Y-51725762D01*
X359048892Y-51546762D01*
X359674892Y-51546762D01*
X359674892Y-51725762D01*
G36*
X359674892Y-51725762D02*
G01*
X359048892Y-51725762D01*
X359048892Y-51546762D01*
X359674892Y-51546762D01*
X359674892Y-51725762D01*
G37*
X359674892Y-52125762D02*
X359048892Y-52125762D01*
X359048892Y-51946762D01*
X359674892Y-51946762D01*
X359674892Y-52125762D01*
G36*
X359674892Y-52125762D02*
G01*
X359048892Y-52125762D01*
X359048892Y-51946762D01*
X359674892Y-51946762D01*
X359674892Y-52125762D01*
G37*
X359674892Y-52525762D02*
X359048892Y-52525762D01*
X359048892Y-52346762D01*
X359674892Y-52346762D01*
X359674892Y-52525762D01*
G36*
X359674892Y-52525762D02*
G01*
X359048892Y-52525762D01*
X359048892Y-52346762D01*
X359674892Y-52346762D01*
X359674892Y-52525762D01*
G37*
X359674892Y-52925762D02*
X359048892Y-52925762D01*
X359048892Y-52746762D01*
X359674892Y-52746762D01*
X359674892Y-52925762D01*
G36*
X359674892Y-52925762D02*
G01*
X359048892Y-52925762D01*
X359048892Y-52746762D01*
X359674892Y-52746762D01*
X359674892Y-52925762D01*
G37*
X359674892Y-53325762D02*
X359048892Y-53325762D01*
X359048892Y-53146762D01*
X359674892Y-53146762D01*
X359674892Y-53325762D01*
G36*
X359674892Y-53325762D02*
G01*
X359048892Y-53325762D01*
X359048892Y-53146762D01*
X359674892Y-53146762D01*
X359674892Y-53325762D01*
G37*
X359674892Y-53725762D02*
X359048892Y-53725762D01*
X359048892Y-53546762D01*
X359674892Y-53546762D01*
X359674892Y-53725762D01*
G36*
X359674892Y-53725762D02*
G01*
X359048892Y-53725762D01*
X359048892Y-53546762D01*
X359674892Y-53546762D01*
X359674892Y-53725762D01*
G37*
X359674892Y-54125762D02*
X359048892Y-54125762D01*
X359048892Y-53946762D01*
X359674892Y-53946762D01*
X359674892Y-54125762D01*
G36*
X359674892Y-54125762D02*
G01*
X359048892Y-54125762D01*
X359048892Y-53946762D01*
X359674892Y-53946762D01*
X359674892Y-54125762D01*
G37*
X359674892Y-54525762D02*
X359048892Y-54525762D01*
X359048892Y-54346762D01*
X359674892Y-54346762D01*
X359674892Y-54525762D01*
G36*
X359674892Y-54525762D02*
G01*
X359048892Y-54525762D01*
X359048892Y-54346762D01*
X359674892Y-54346762D01*
X359674892Y-54525762D01*
G37*
X359674892Y-54925762D02*
X359048892Y-54925762D01*
X359048892Y-54746762D01*
X359674892Y-54746762D01*
X359674892Y-54925762D01*
G36*
X359674892Y-54925762D02*
G01*
X359048892Y-54925762D01*
X359048892Y-54746762D01*
X359674892Y-54746762D01*
X359674892Y-54925762D01*
G37*
X359674892Y-55325762D02*
X359048892Y-55325762D01*
X359048892Y-55146762D01*
X359674892Y-55146762D01*
X359674892Y-55325762D01*
G36*
X359674892Y-55325762D02*
G01*
X359048892Y-55325762D01*
X359048892Y-55146762D01*
X359674892Y-55146762D01*
X359674892Y-55325762D01*
G37*
X359674892Y-55725762D02*
X359048892Y-55725762D01*
X359048892Y-55546762D01*
X359674892Y-55546762D01*
X359674892Y-55725762D01*
G36*
X359674892Y-55725762D02*
G01*
X359048892Y-55725762D01*
X359048892Y-55546762D01*
X359674892Y-55546762D01*
X359674892Y-55725762D01*
G37*
X359674892Y-56125762D02*
X359048892Y-56125762D01*
X359048892Y-55946762D01*
X359674892Y-55946762D01*
X359674892Y-56125762D01*
G36*
X359674892Y-56125762D02*
G01*
X359048892Y-56125762D01*
X359048892Y-55946762D01*
X359674892Y-55946762D01*
X359674892Y-56125762D01*
G37*
X359674892Y-56525762D02*
X359048892Y-56525762D01*
X359048892Y-56346762D01*
X359674892Y-56346762D01*
X359674892Y-56525762D01*
G36*
X359674892Y-56525762D02*
G01*
X359048892Y-56525762D01*
X359048892Y-56346762D01*
X359674892Y-56346762D01*
X359674892Y-56525762D01*
G37*
X359674892Y-56925762D02*
X359048892Y-56925762D01*
X359048892Y-56746762D01*
X359674892Y-56746762D01*
X359674892Y-56925762D01*
G36*
X359674892Y-56925762D02*
G01*
X359048892Y-56925762D01*
X359048892Y-56746762D01*
X359674892Y-56746762D01*
X359674892Y-56925762D01*
G37*
X359674892Y-57325762D02*
X359048892Y-57325762D01*
X359048892Y-57146762D01*
X359674892Y-57146762D01*
X359674892Y-57325762D01*
G36*
X359674892Y-57325762D02*
G01*
X359048892Y-57325762D01*
X359048892Y-57146762D01*
X359674892Y-57146762D01*
X359674892Y-57325762D01*
G37*
X359674892Y-57725762D02*
X359048892Y-57725762D01*
X359048892Y-57546762D01*
X359674892Y-57546762D01*
X359674892Y-57725762D01*
G36*
X359674892Y-57725762D02*
G01*
X359048892Y-57725762D01*
X359048892Y-57546762D01*
X359674892Y-57546762D01*
X359674892Y-57725762D01*
G37*
X359674892Y-58125762D02*
X359048892Y-58125762D01*
X359048892Y-57946762D01*
X359674892Y-57946762D01*
X359674892Y-58125762D01*
G36*
X359674892Y-58125762D02*
G01*
X359048892Y-58125762D01*
X359048892Y-57946762D01*
X359674892Y-57946762D01*
X359674892Y-58125762D01*
G37*
X359674892Y-58525762D02*
X359048892Y-58525762D01*
X359048892Y-58346762D01*
X359674892Y-58346762D01*
X359674892Y-58525762D01*
G36*
X359674892Y-58525762D02*
G01*
X359048892Y-58525762D01*
X359048892Y-58346762D01*
X359674892Y-58346762D01*
X359674892Y-58525762D01*
G37*
X359674892Y-58925762D02*
X359048892Y-58925762D01*
X359048892Y-58746762D01*
X359674892Y-58746762D01*
X359674892Y-58925762D01*
G36*
X359674892Y-58925762D02*
G01*
X359048892Y-58925762D01*
X359048892Y-58746762D01*
X359674892Y-58746762D01*
X359674892Y-58925762D01*
G37*
X359674892Y-59325762D02*
X359048892Y-59325762D01*
X359048892Y-59146762D01*
X359674892Y-59146762D01*
X359674892Y-59325762D01*
G36*
X359674892Y-59325762D02*
G01*
X359048892Y-59325762D01*
X359048892Y-59146762D01*
X359674892Y-59146762D01*
X359674892Y-59325762D01*
G37*
X359674892Y-59725762D02*
X359048892Y-59725762D01*
X359048892Y-59546762D01*
X359674892Y-59546762D01*
X359674892Y-59725762D01*
G36*
X359674892Y-59725762D02*
G01*
X359048892Y-59725762D01*
X359048892Y-59546762D01*
X359674892Y-59546762D01*
X359674892Y-59725762D01*
G37*
X359674892Y-60125762D02*
X359048892Y-60125762D01*
X359048892Y-59946762D01*
X359674892Y-59946762D01*
X359674892Y-60125762D01*
G36*
X359674892Y-60125762D02*
G01*
X359048892Y-60125762D01*
X359048892Y-59946762D01*
X359674892Y-59946762D01*
X359674892Y-60125762D01*
G37*
X359674892Y-60525762D02*
X359048892Y-60525762D01*
X359048892Y-60346762D01*
X359674892Y-60346762D01*
X359674892Y-60525762D01*
G36*
X359674892Y-60525762D02*
G01*
X359048892Y-60525762D01*
X359048892Y-60346762D01*
X359674892Y-60346762D01*
X359674892Y-60525762D01*
G37*
X359674892Y-60925762D02*
X359048892Y-60925762D01*
X359048892Y-60746762D01*
X359674892Y-60746762D01*
X359674892Y-60925762D01*
G36*
X359674892Y-60925762D02*
G01*
X359048892Y-60925762D01*
X359048892Y-60746762D01*
X359674892Y-60746762D01*
X359674892Y-60925762D01*
G37*
X359674892Y-61325762D02*
X359048892Y-61325762D01*
X359048892Y-61146762D01*
X359674892Y-61146762D01*
X359674892Y-61325762D01*
G36*
X359674892Y-61325762D02*
G01*
X359048892Y-61325762D01*
X359048892Y-61146762D01*
X359674892Y-61146762D01*
X359674892Y-61325762D01*
G37*
X359674892Y-61725762D02*
X359048892Y-61725762D01*
X359048892Y-61546762D01*
X359674892Y-61546762D01*
X359674892Y-61725762D01*
G36*
X359674892Y-61725762D02*
G01*
X359048892Y-61725762D01*
X359048892Y-61546762D01*
X359674892Y-61546762D01*
X359674892Y-61725762D01*
G37*
X359674892Y-62125762D02*
X359048892Y-62125762D01*
X359048892Y-61946762D01*
X359674892Y-61946762D01*
X359674892Y-62125762D01*
G36*
X359674892Y-62125762D02*
G01*
X359048892Y-62125762D01*
X359048892Y-61946762D01*
X359674892Y-61946762D01*
X359674892Y-62125762D01*
G37*
X359674892Y-62525762D02*
X359048892Y-62525762D01*
X359048892Y-62346762D01*
X359674892Y-62346762D01*
X359674892Y-62525762D01*
G36*
X359674892Y-62525762D02*
G01*
X359048892Y-62525762D01*
X359048892Y-62346762D01*
X359674892Y-62346762D01*
X359674892Y-62525762D01*
G37*
X359674892Y-62925762D02*
X359048892Y-62925762D01*
X359048892Y-62746762D01*
X359674892Y-62746762D01*
X359674892Y-62925762D01*
G36*
X359674892Y-62925762D02*
G01*
X359048892Y-62925762D01*
X359048892Y-62746762D01*
X359674892Y-62746762D01*
X359674892Y-62925762D01*
G37*
X359674892Y-63325762D02*
X359048892Y-63325762D01*
X359048892Y-63146762D01*
X359674892Y-63146762D01*
X359674892Y-63325762D01*
G36*
X359674892Y-63325762D02*
G01*
X359048892Y-63325762D01*
X359048892Y-63146762D01*
X359674892Y-63146762D01*
X359674892Y-63325762D01*
G37*
X359674892Y-63725762D02*
X359048892Y-63725762D01*
X359048892Y-63546762D01*
X359674892Y-63546762D01*
X359674892Y-63725762D01*
G36*
X359674892Y-63725762D02*
G01*
X359048892Y-63725762D01*
X359048892Y-63546762D01*
X359674892Y-63546762D01*
X359674892Y-63725762D01*
G37*
X359674892Y-64125762D02*
X359048892Y-64125762D01*
X359048892Y-63946762D01*
X359674892Y-63946762D01*
X359674892Y-64125762D01*
G36*
X359674892Y-64125762D02*
G01*
X359048892Y-64125762D01*
X359048892Y-63946762D01*
X359674892Y-63946762D01*
X359674892Y-64125762D01*
G37*
X359674892Y-64525762D02*
X359048892Y-64525762D01*
X359048892Y-64346762D01*
X359674892Y-64346762D01*
X359674892Y-64525762D01*
G36*
X359674892Y-64525762D02*
G01*
X359048892Y-64525762D01*
X359048892Y-64346762D01*
X359674892Y-64346762D01*
X359674892Y-64525762D01*
G37*
X359674892Y-64925762D02*
X359048892Y-64925762D01*
X359048892Y-64746762D01*
X359674892Y-64746762D01*
X359674892Y-64925762D01*
G36*
X359674892Y-64925762D02*
G01*
X359048892Y-64925762D01*
X359048892Y-64746762D01*
X359674892Y-64746762D01*
X359674892Y-64925762D01*
G37*
X359674892Y-65325762D02*
X359048892Y-65325762D01*
X359048892Y-65146762D01*
X359674892Y-65146762D01*
X359674892Y-65325762D01*
G36*
X359674892Y-65325762D02*
G01*
X359048892Y-65325762D01*
X359048892Y-65146762D01*
X359674892Y-65146762D01*
X359674892Y-65325762D01*
G37*
X359674892Y-65725762D02*
X359048892Y-65725762D01*
X359048892Y-65546762D01*
X359674892Y-65546762D01*
X359674892Y-65725762D01*
G36*
X359674892Y-65725762D02*
G01*
X359048892Y-65725762D01*
X359048892Y-65546762D01*
X359674892Y-65546762D01*
X359674892Y-65725762D01*
G37*
X359674892Y-66125762D02*
X359048892Y-66125762D01*
X359048892Y-65946762D01*
X359674892Y-65946762D01*
X359674892Y-66125762D01*
G36*
X359674892Y-66125762D02*
G01*
X359048892Y-66125762D01*
X359048892Y-65946762D01*
X359674892Y-65946762D01*
X359674892Y-66125762D01*
G37*
X359674892Y-66525762D02*
X359048892Y-66525762D01*
X359048892Y-66346762D01*
X359674892Y-66346762D01*
X359674892Y-66525762D01*
G36*
X359674892Y-66525762D02*
G01*
X359048892Y-66525762D01*
X359048892Y-66346762D01*
X359674892Y-66346762D01*
X359674892Y-66525762D01*
G37*
X359674892Y-66925762D02*
X359048892Y-66925762D01*
X359048892Y-66746762D01*
X359674892Y-66746762D01*
X359674892Y-66925762D01*
G36*
X359674892Y-66925762D02*
G01*
X359048892Y-66925762D01*
X359048892Y-66746762D01*
X359674892Y-66746762D01*
X359674892Y-66925762D01*
G37*
X359674892Y-67325762D02*
X359048892Y-67325762D01*
X359048892Y-67146762D01*
X359674892Y-67146762D01*
X359674892Y-67325762D01*
G36*
X359674892Y-67325762D02*
G01*
X359048892Y-67325762D01*
X359048892Y-67146762D01*
X359674892Y-67146762D01*
X359674892Y-67325762D01*
G37*
X359674892Y-67725762D02*
X359048892Y-67725762D01*
X359048892Y-67546762D01*
X359674892Y-67546762D01*
X359674892Y-67725762D01*
G36*
X359674892Y-67725762D02*
G01*
X359048892Y-67725762D01*
X359048892Y-67546762D01*
X359674892Y-67546762D01*
X359674892Y-67725762D01*
G37*
G04 #@! TD*
D11*
G04 #@! TO.C,R12*
X128760000Y-113165000D03*
X128760000Y-114815000D03*
G04 #@! TD*
G04 #@! TO.C,R9*
X132570000Y-113195000D03*
X132570000Y-114845000D03*
G04 #@! TD*
D12*
G04 #@! TO.C,D3*
X171152500Y-125420000D03*
X172727500Y-125420000D03*
G04 #@! TD*
D13*
G04 #@! TO.C,R7*
X145990000Y-58700000D03*
X147010000Y-58700000D03*
G04 #@! TD*
D14*
G04 #@! TO.C,R11*
X142285000Y-31440000D03*
X140635000Y-31440000D03*
G04 #@! TD*
D15*
G04 #@! TO.C,J16*
X163050001Y-66830014D03*
X165950000Y-67330014D03*
X163050001Y-67830014D03*
X165950000Y-68330014D03*
X163050001Y-68830014D03*
X165950000Y-69330014D03*
X163050001Y-69830014D03*
X165950000Y-70330014D03*
X163050001Y-70830014D03*
X165950000Y-71330014D03*
X163050001Y-71830014D03*
X165950000Y-72330014D03*
X163050001Y-72830014D03*
X165950000Y-73330014D03*
X163050001Y-73830014D03*
X165950000Y-74330014D03*
X163050001Y-74830014D03*
X165950000Y-75330014D03*
X163050001Y-75830014D03*
X165950000Y-76330014D03*
X163050001Y-76830014D03*
X165950000Y-77330014D03*
D16*
X163150000Y-65830011D03*
X163150000Y-78329989D03*
X165850000Y-65830011D03*
X165850000Y-78329989D03*
G04 #@! TD*
D15*
G04 #@! TO.C,J5*
X163050001Y-49050014D03*
X165950000Y-49550014D03*
X163050001Y-50050014D03*
X165950000Y-50550014D03*
X163050001Y-51050014D03*
X165950000Y-51550014D03*
X163050001Y-52050014D03*
X165950000Y-52550014D03*
X163050001Y-53050014D03*
X165950000Y-53550014D03*
X163050001Y-54050014D03*
X165950000Y-54550014D03*
X163050001Y-55050014D03*
X165950000Y-55550014D03*
X163050001Y-56050014D03*
X165950000Y-56550014D03*
X163050001Y-57050014D03*
X165950000Y-57550014D03*
X163050001Y-58050014D03*
X165950000Y-58550014D03*
X163050001Y-59050014D03*
X165950000Y-59550014D03*
D16*
X163150000Y-48050011D03*
X163150000Y-60549989D03*
X165850000Y-48050011D03*
X165850000Y-60549989D03*
G04 #@! TD*
D17*
G04 #@! TO.C,Module1*
X116560000Y-66180000D03*
X119640000Y-66180000D03*
X116560000Y-66580000D03*
X119640000Y-66580000D03*
X116560000Y-66980000D03*
X119640000Y-66980000D03*
X116560000Y-67380000D03*
X119640000Y-67380000D03*
X116560000Y-67780000D03*
X119640000Y-67780000D03*
X116560000Y-68180000D03*
X119640000Y-68180000D03*
X116560000Y-68580000D03*
X119640000Y-68580000D03*
X116560000Y-68980000D03*
X119640000Y-68980000D03*
X116560000Y-69380000D03*
X119640000Y-69380000D03*
X116560000Y-69780000D03*
X119640000Y-69780000D03*
X116560000Y-70180000D03*
X119640000Y-70180000D03*
X116560000Y-70580000D03*
X119640000Y-70580000D03*
X116560000Y-70980000D03*
X119640000Y-70980000D03*
X116560000Y-71380000D03*
X119640000Y-71380000D03*
X116560000Y-71780000D03*
X119640000Y-71780000D03*
X116560000Y-72180000D03*
X119640000Y-72180000D03*
X116560000Y-72580000D03*
X119640000Y-72580000D03*
X116560000Y-72980000D03*
X119640000Y-72980000D03*
X116560000Y-73380000D03*
X119640000Y-73380000D03*
X116560000Y-73780000D03*
X119640000Y-73780000D03*
X116560000Y-74180000D03*
X119640000Y-74180000D03*
X116560000Y-74580000D03*
X119640000Y-74580000D03*
X116560000Y-74980000D03*
X119640000Y-74980000D03*
X116560000Y-75380000D03*
X119640000Y-75380000D03*
X116560000Y-75780000D03*
X119640000Y-75780000D03*
X116560000Y-76180000D03*
X119640000Y-76180000D03*
X116560000Y-76580000D03*
X119640000Y-76580000D03*
X116560000Y-76980000D03*
X119640000Y-76980000D03*
X116560000Y-77380000D03*
X119640000Y-77380000D03*
X116560000Y-77780000D03*
X119640000Y-77780000D03*
X116560000Y-78180000D03*
X119640000Y-78180000D03*
X116560000Y-78580000D03*
X119640000Y-78580000D03*
X116560000Y-78980000D03*
X119640000Y-78980000D03*
X116560000Y-79380000D03*
X119640000Y-79380000D03*
X116560000Y-79780000D03*
X119640000Y-79780000D03*
X116560000Y-80180000D03*
X119640000Y-80180000D03*
X116560000Y-80580000D03*
X119640000Y-80580000D03*
X116560000Y-80980000D03*
X119640000Y-80980000D03*
X116560000Y-81380000D03*
X119640000Y-81380000D03*
X116560000Y-81780000D03*
X119640000Y-81780000D03*
X116560000Y-82180000D03*
X119640000Y-82180000D03*
X116560000Y-82580000D03*
X119640000Y-82580000D03*
X116560000Y-82980000D03*
X119640000Y-82980000D03*
X116560000Y-83380000D03*
X119640000Y-83380000D03*
X116560000Y-83780000D03*
X119640000Y-83780000D03*
X116560000Y-84180000D03*
X119640000Y-84180000D03*
X116560000Y-84580000D03*
X119640000Y-84580000D03*
X116560000Y-84980000D03*
X119640000Y-84980000D03*
X116560000Y-85380000D03*
X119640000Y-85380000D03*
X116560000Y-85780000D03*
X119640000Y-85780000D03*
X150560000Y-66180000D03*
X153640000Y-66180000D03*
X150560000Y-66580000D03*
X153640000Y-66580000D03*
X150560000Y-66980000D03*
X153640000Y-66980000D03*
X150560000Y-67380000D03*
X153640000Y-67380000D03*
X150560000Y-67780000D03*
X153640000Y-67780000D03*
X150560000Y-68180000D03*
X153640000Y-68180000D03*
X150560000Y-68580000D03*
X153640000Y-68580000D03*
X150560000Y-68980000D03*
X153640000Y-68980000D03*
X150560000Y-69380000D03*
X153640000Y-69380000D03*
X150560000Y-69780000D03*
X153640000Y-69780000D03*
X150560000Y-70180000D03*
X153640000Y-70180000D03*
X150560000Y-70580000D03*
X153640000Y-70580000D03*
X150560000Y-70980000D03*
X153640000Y-70980000D03*
X150560000Y-71380000D03*
X153640000Y-71380000D03*
X150560000Y-71780000D03*
X153640000Y-71780000D03*
X150560000Y-72180000D03*
X153640000Y-72180000D03*
X150560000Y-72580000D03*
X153640000Y-72580000D03*
X150560000Y-72980000D03*
X153640000Y-72980000D03*
X150560000Y-73380000D03*
X153640000Y-73380000D03*
X150560000Y-73780000D03*
X153640000Y-73780000D03*
X150560000Y-74180000D03*
X153640000Y-74180000D03*
X150560000Y-74580000D03*
X153640000Y-74580000D03*
X150560000Y-74980000D03*
X153640000Y-74980000D03*
X150560000Y-75380000D03*
X153640000Y-75380000D03*
X150560000Y-75780000D03*
X153640000Y-75780000D03*
X150560000Y-76180000D03*
X153640000Y-76180000D03*
X150560000Y-76580000D03*
X153640000Y-76580000D03*
X150560000Y-76980000D03*
X153640000Y-76980000D03*
X150560000Y-77380000D03*
X153640000Y-77380000D03*
X150560000Y-77780000D03*
X153640000Y-77780000D03*
X150560000Y-78180000D03*
X153640000Y-78180000D03*
X150560000Y-78580000D03*
X153640000Y-78580000D03*
X150560000Y-78980000D03*
X153640000Y-78980000D03*
X150560000Y-79380000D03*
X153640000Y-79380000D03*
X150560000Y-79780000D03*
X153640000Y-79780000D03*
X150560000Y-80180000D03*
X153640000Y-80180000D03*
X150560000Y-80580000D03*
X153640000Y-80580000D03*
X150560000Y-80980000D03*
X153640000Y-80980000D03*
X150560000Y-81380000D03*
X153640000Y-81380000D03*
X150560000Y-81780000D03*
X153640000Y-81780000D03*
X150560000Y-82180000D03*
X153640000Y-82180000D03*
X150560000Y-82580000D03*
X153640000Y-82580000D03*
X150560000Y-82980000D03*
X153640000Y-82980000D03*
X150560000Y-83380000D03*
X153640000Y-83380000D03*
X150560000Y-83780000D03*
X153640000Y-83780000D03*
X150560000Y-84180000D03*
X153640000Y-84180000D03*
X150560000Y-84580000D03*
X153640000Y-84580000D03*
X150560000Y-84980000D03*
X153640000Y-84980000D03*
X150560000Y-85380000D03*
X153640000Y-85380000D03*
X150560000Y-85780000D03*
X153640000Y-85780000D03*
G04 #@! TD*
D18*
G04 #@! TO.C,C9*
X121500000Y-84300000D03*
X121500000Y-85260000D03*
G04 #@! TD*
D19*
G04 #@! TO.C,C1*
X131300000Y-27135000D03*
X131300000Y-25585000D03*
G04 #@! TD*
D20*
G04 #@! TO.C,U1*
X120140000Y-44525000D03*
X120640000Y-44525000D03*
X121140000Y-44525000D03*
X121640000Y-44525000D03*
X122140000Y-44525000D03*
X122140000Y-43755000D03*
X121640000Y-43755000D03*
X121140000Y-43755000D03*
X120640000Y-43755000D03*
X120140000Y-43755000D03*
G04 #@! TD*
D21*
G04 #@! TO.C,R5*
X167305000Y-127960000D03*
X168955000Y-127960000D03*
G04 #@! TD*
G04 #@! TO.C,R2*
X110155000Y-44140000D03*
X111805000Y-44140000D03*
G04 #@! TD*
D22*
G04 #@! TO.C,R13*
X150350000Y-117355000D03*
X150350000Y-115705000D03*
G04 #@! TD*
D12*
G04 #@! TO.C,D4*
X171152500Y-127960000D03*
X172727500Y-127960000D03*
G04 #@! TD*
G04 #@! TO.C,D2*
X154712500Y-28160000D03*
X156287500Y-28160000D03*
G04 #@! TD*
G04 #@! TO.C,D1*
X149632500Y-28160000D03*
X151207500Y-28160000D03*
G04 #@! TD*
D23*
G04 #@! TO.C,J14*
X139960000Y-28955000D03*
X140960000Y-28955000D03*
X141960000Y-28955000D03*
X142960000Y-28955000D03*
D24*
X138660000Y-26430000D03*
X144260000Y-26430000D03*
G04 #@! TD*
D21*
G04 #@! TO.C,R10*
X149595000Y-30700000D03*
X151245000Y-30700000D03*
G04 #@! TD*
D25*
G04 #@! TO.C,U7*
X156700000Y-116530000D03*
D26*
X153825000Y-114625000D03*
X153825000Y-115895000D03*
X153825000Y-117165000D03*
X153825000Y-118435000D03*
X159575000Y-118435000D03*
X159575000Y-117165000D03*
X159575000Y-115895000D03*
X159575000Y-114625000D03*
G04 #@! TD*
D27*
G04 #@! TO.C,U8*
X120480000Y-117560000D03*
X120480000Y-115260000D03*
X120480000Y-112960000D03*
D28*
X114180000Y-115260000D03*
G04 #@! TD*
D21*
G04 #@! TO.C,R4*
X167305000Y-125420000D03*
X168955000Y-125420000D03*
G04 #@! TD*
D13*
G04 #@! TO.C,R8*
X145990000Y-62700000D03*
X147010000Y-62700000D03*
G04 #@! TD*
D29*
G04 #@! TO.C,C5*
X163050000Y-116850000D03*
X163050000Y-118750000D03*
G04 #@! TD*
D30*
G04 #@! TO.C,C4*
X165590000Y-117025000D03*
X165590000Y-118575000D03*
G04 #@! TD*
D31*
G04 #@! TO.C,C18*
X121500000Y-79180000D03*
X121500000Y-78220000D03*
G04 #@! TD*
D13*
G04 #@! TO.C,R6*
X145990000Y-60700000D03*
X147010000Y-60700000D03*
G04 #@! TD*
D21*
G04 #@! TO.C,R3*
X115235000Y-44140000D03*
X116885000Y-44140000D03*
G04 #@! TD*
G04 #@! TO.C,R1*
X154675000Y-30700000D03*
X156325000Y-30700000D03*
G04 #@! TD*
D20*
G04 #@! TO.C,U2*
X125220000Y-44525000D03*
X125720000Y-44525000D03*
X126220000Y-44525000D03*
X126720000Y-44525000D03*
X127220000Y-44525000D03*
X127220000Y-43755000D03*
X126720000Y-43755000D03*
X126220000Y-43755000D03*
X125720000Y-43755000D03*
X125220000Y-43755000D03*
G04 #@! TD*
M02*
