G04 #@! TF.GenerationSoftware,KiCad,Pcbnew,9.0.7*
G04 #@! TF.CreationDate,2026-02-15T19:18:06+01:00*
G04 #@! TF.ProjectId,CM5IO,434d3549-4f2e-46b6-9963-61645f706362,rev?*
G04 #@! TF.SameCoordinates,Original*
G04 #@! TF.FileFunction,Soldermask,Bot*
G04 #@! TF.FilePolarity,Negative*
%FSLAX46Y46*%
G04 Gerber Fmt 4.6, Leading zero omitted, Abs format (unit mm)*
G04 Created by KiCad (PCBNEW 9.0.7) date 2026-02-15 19:18:06*
%MOMM*%
%LPD*%
G01*
G04 APERTURE LIST*
G04 Aperture macros list*
%AMRoundRect*
0 Rectangle with rounded corners*
0 $1 Rounding radius*
0 $2 $3 $4 $5 $6 $7 $8 $9 X,Y pos of 4 corners*
0 Add a 4 corners polygon primitive as box body*
4,1,4,$2,$3,$4,$5,$6,$7,$8,$9,$2,$3,0*
0 Add four circle primitives for the rounded corners*
1,1,$1+$1,$2,$3*
1,1,$1+$1,$4,$5*
1,1,$1+$1,$6,$7*
1,1,$1+$1,$8,$9*
0 Add four rect primitives between the rounded corners*
20,1,$1+$1,$2,$3,$4,$5,0*
20,1,$1+$1,$4,$5,$6,$7,0*
20,1,$1+$1,$6,$7,$8,$9,0*
20,1,$1+$1,$8,$9,$2,$3,0*%
G04 Aperture macros list end*
%ADD10RoundRect,0.250000X-0.750000X0.600000X-0.750000X-0.600000X0.750000X-0.600000X0.750000X0.600000X0*%
%ADD11O,2.000000X1.700000*%
%ADD12C,3.200000*%
%ADD13RoundRect,0.250500X-0.499500X0.499500X-0.499500X-0.499500X0.499500X-0.499500X0.499500X0.499500X0*%
%ADD14C,1.500000*%
%ADD15C,2.500000*%
%ADD16RoundRect,0.250000X-0.550000X0.550000X-0.550000X-0.550000X0.550000X-0.550000X0.550000X0.550000X0*%
%ADD17C,1.600000*%
%ADD18RoundRect,0.250000X-0.600000X-0.725000X0.600000X-0.725000X0.600000X0.725000X-0.600000X0.725000X0*%
%ADD19O,1.700000X1.950000*%
%ADD20R,1.700000X1.700000*%
%ADD21C,1.700000*%
%ADD22C,6.100000*%
%ADD23R,2.000000X1.905000*%
%ADD24O,2.000000X1.905000*%
%ADD25RoundRect,0.250000X0.725000X-0.600000X0.725000X0.600000X-0.725000X0.600000X-0.725000X-0.600000X0*%
%ADD26O,1.950000X1.700000*%
%ADD27C,0.770000*%
G04 APERTURE END LIST*
D10*
G04 #@! TO.C,J11*
X164320000Y-37832500D03*
D11*
X164320000Y-40332500D03*
G04 #@! TD*
D12*
G04 #@! TO.C,U3*
X118600000Y-26995000D03*
X118600000Y-38425000D03*
D13*
X127490000Y-26995000D03*
D14*
X124950000Y-28265000D03*
X127490000Y-29535000D03*
X124950000Y-30805000D03*
X127490000Y-32075000D03*
X124950000Y-33345000D03*
X127490000Y-34615000D03*
X124950000Y-35885000D03*
X127490000Y-37155000D03*
X124950000Y-38425000D03*
X122430000Y-26995000D03*
X121160000Y-29535000D03*
X121160000Y-35885000D03*
X122430000Y-38425000D03*
X114540000Y-26080000D03*
X114540000Y-28620000D03*
X114540000Y-36800000D03*
X114540000Y-39340000D03*
D15*
X121650000Y-24835000D03*
X121650000Y-40585000D03*
G04 #@! TD*
D16*
G04 #@! TO.C,SW1*
X157487500Y-35292500D03*
D17*
X157487500Y-42912500D03*
G04 #@! TD*
D18*
G04 #@! TO.C,J10*
X159340000Y-84070000D03*
D19*
X161840000Y-84070000D03*
X164340000Y-84070000D03*
X166840000Y-84070000D03*
X169340000Y-84070000D03*
X171840000Y-84070000D03*
G04 #@! TD*
D18*
G04 #@! TO.C,J1*
X159340000Y-94230000D03*
D19*
X161840000Y-94230000D03*
X164340000Y-94230000D03*
X166840000Y-94230000D03*
X169340000Y-94230000D03*
X171840000Y-94230000D03*
G04 #@! TD*
D20*
G04 #@! TO.C,U4*
X116830000Y-125420000D03*
D21*
X119370000Y-125420000D03*
X121910000Y-125420000D03*
X124450000Y-125420000D03*
X126990000Y-125420000D03*
X129530000Y-125420000D03*
X132070000Y-125420000D03*
X134610000Y-125420000D03*
X137150000Y-125420000D03*
X139690000Y-125420000D03*
X142230000Y-125420000D03*
X144770000Y-125420000D03*
X147310000Y-125420000D03*
X149850000Y-125420000D03*
X152390000Y-125420000D03*
X154930000Y-125420000D03*
X157470000Y-125420000D03*
X157470000Y-107640000D03*
X154930000Y-107640000D03*
X152390000Y-107640000D03*
X149850000Y-107640000D03*
X147310000Y-107640000D03*
X144770000Y-107640000D03*
X142230000Y-107640000D03*
X139690000Y-107640000D03*
X137150000Y-107640000D03*
X134610000Y-107640000D03*
X132070000Y-107640000D03*
X129530000Y-107640000D03*
X126990000Y-107640000D03*
X124450000Y-107640000D03*
X121910000Y-107640000D03*
X119370000Y-107640000D03*
X116830000Y-107640000D03*
G04 #@! TD*
D22*
G04 #@! TO.C,Module1*
X118600000Y-49480000D03*
X118600000Y-97480000D03*
X151600000Y-49480000D03*
X151600000Y-97480000D03*
G04 #@! TD*
D18*
G04 #@! TO.C,J12*
X159340000Y-99310000D03*
D19*
X161840000Y-99310000D03*
X164340000Y-99310000D03*
X166840000Y-99310000D03*
X169340000Y-99310000D03*
X171840000Y-99310000D03*
G04 #@! TD*
D20*
G04 #@! TO.C,J8*
X112255000Y-97475000D03*
D21*
X109715000Y-97475000D03*
X112255000Y-94935000D03*
X109715000Y-94935000D03*
X112255000Y-92395000D03*
X109715000Y-92395000D03*
X112255000Y-89855000D03*
X109715000Y-89855000D03*
X112255000Y-87315000D03*
X109715000Y-87315000D03*
X112255000Y-84775000D03*
X109715000Y-84775000D03*
X112255000Y-82235000D03*
X109715000Y-82235000D03*
X112255000Y-79695000D03*
X109715000Y-79695000D03*
X112255000Y-77155000D03*
X109715000Y-77155000D03*
X112255000Y-74615000D03*
X109715000Y-74615000D03*
X112255000Y-72075000D03*
X109715000Y-72075000D03*
X112255000Y-69535000D03*
X109715000Y-69535000D03*
X112255000Y-66995000D03*
X109715000Y-66995000D03*
X112255000Y-64455000D03*
X109715000Y-64455000D03*
X112255000Y-61915000D03*
X109715000Y-61915000D03*
X112255000Y-59375000D03*
X109715000Y-59375000D03*
X112255000Y-56835000D03*
X109715000Y-56835000D03*
X112255000Y-54295000D03*
X109715000Y-54295000D03*
X112255000Y-51755000D03*
X109715000Y-51755000D03*
X112255000Y-49215000D03*
X109715000Y-49215000D03*
G04 #@! TD*
D23*
G04 #@! TO.C,U9*
X150030000Y-41600000D03*
D24*
X150030000Y-39060000D03*
X150030000Y-36520000D03*
G04 #@! TD*
D25*
G04 #@! TO.C,J7*
X170200000Y-118950000D03*
D26*
X170200000Y-116450000D03*
X170200000Y-113950000D03*
X170200000Y-111450000D03*
X170200000Y-108950000D03*
X170200000Y-106450000D03*
G04 #@! TD*
D27*
G04 #@! TO.C,U7*
X156050000Y-115230000D03*
X156050000Y-116530000D03*
X156050000Y-117830000D03*
X157350000Y-115230000D03*
X157350000Y-116530000D03*
X157350000Y-117830000D03*
G04 #@! TD*
D10*
G04 #@! TO.C,J3*
X132570000Y-39060000D03*
D11*
X132570000Y-41560000D03*
G04 #@! TD*
D18*
G04 #@! TO.C,J4*
X159340000Y-89150000D03*
D19*
X161840000Y-89150000D03*
X164340000Y-89150000D03*
X166840000Y-89150000D03*
X169340000Y-89150000D03*
X171840000Y-89150000D03*
G04 #@! TD*
M02*
