G04 #@! TF.GenerationSoftware,KiCad,Pcbnew,9.0.7*
G04 #@! TF.CreationDate,2026-02-15T19:18:06+01:00*
G04 #@! TF.ProjectId,CM5IO,434d3549-4f2e-46b6-9963-61645f706362,rev?*
G04 #@! TF.SameCoordinates,Original*
G04 #@! TF.FileFunction,Copper,L2,Inr*
G04 #@! TF.FilePolarity,Positive*
%FSLAX46Y46*%
G04 Gerber Fmt 4.6, Leading zero omitted, Abs format (unit mm)*
G04 Created by KiCad (PCBNEW 9.0.7) date 2026-02-15 19:18:06*
%MOMM*%
%LPD*%
G01*
G04 APERTURE LIST*
G04 Aperture macros list*
%AMRoundRect*
0 Rectangle with rounded corners*
0 $1 Rounding radius*
0 $2 $3 $4 $5 $6 $7 $8 $9 X,Y pos of 4 corners*
0 Add a 4 corners polygon primitive as box body*
4,1,4,$2,$3,$4,$5,$6,$7,$8,$9,$2,$3,0*
0 Add four circle primitives for the rounded corners*
1,1,$1+$1,$2,$3*
1,1,$1+$1,$4,$5*
1,1,$1+$1,$6,$7*
1,1,$1+$1,$8,$9*
0 Add four rect primitives between the rounded corners*
20,1,$1+$1,$2,$3,$4,$5,0*
20,1,$1+$1,$4,$5,$6,$7,0*
20,1,$1+$1,$6,$7,$8,$9,0*
20,1,$1+$1,$8,$9,$2,$3,0*%
G04 Aperture macros list end*
G04 #@! TA.AperFunction,ComponentPad*
%ADD10RoundRect,0.250000X-0.750000X0.600000X-0.750000X-0.600000X0.750000X-0.600000X0.750000X0.600000X0*%
G04 #@! TD*
G04 #@! TA.AperFunction,ComponentPad*
%ADD11O,2.000000X1.700000*%
G04 #@! TD*
G04 #@! TA.AperFunction,ComponentPad*
%ADD12RoundRect,0.250500X-0.499500X0.499500X-0.499500X-0.499500X0.499500X-0.499500X0.499500X0.499500X0*%
G04 #@! TD*
G04 #@! TA.AperFunction,ComponentPad*
%ADD13C,1.500000*%
G04 #@! TD*
G04 #@! TA.AperFunction,ComponentPad*
%ADD14C,2.500000*%
G04 #@! TD*
G04 #@! TA.AperFunction,ComponentPad*
%ADD15RoundRect,0.250000X-0.550000X0.550000X-0.550000X-0.550000X0.550000X-0.550000X0.550000X0.550000X0*%
G04 #@! TD*
G04 #@! TA.AperFunction,ComponentPad*
%ADD16C,1.600000*%
G04 #@! TD*
G04 #@! TA.AperFunction,ComponentPad*
%ADD17RoundRect,0.250000X-0.600000X-0.725000X0.600000X-0.725000X0.600000X0.725000X-0.600000X0.725000X0*%
G04 #@! TD*
G04 #@! TA.AperFunction,ComponentPad*
%ADD18O,1.700000X1.950000*%
G04 #@! TD*
G04 #@! TA.AperFunction,ComponentPad*
%ADD19R,1.700000X1.700000*%
G04 #@! TD*
G04 #@! TA.AperFunction,ComponentPad*
%ADD20C,1.700000*%
G04 #@! TD*
G04 #@! TA.AperFunction,ComponentPad*
%ADD21R,2.000000X1.905000*%
G04 #@! TD*
G04 #@! TA.AperFunction,ComponentPad*
%ADD22O,2.000000X1.905000*%
G04 #@! TD*
G04 #@! TA.AperFunction,ComponentPad*
%ADD23RoundRect,0.250000X0.725000X-0.600000X0.725000X0.600000X-0.725000X0.600000X-0.725000X-0.600000X0*%
G04 #@! TD*
G04 #@! TA.AperFunction,ComponentPad*
%ADD24O,1.950000X1.700000*%
G04 #@! TD*
G04 #@! TA.AperFunction,ComponentPad*
%ADD25C,0.630000*%
G04 #@! TD*
G04 APERTURE END LIST*
D10*
G04 #@! TO.N,GND*
G04 #@! TO.C,J11*
X164320000Y-37832500D03*
D11*
G04 #@! TO.N,/CM5_GPIO ( Ethernet\u002C GPIO\u002C SDCARD)/BAT AD IN*
X164320000Y-40332500D03*
G04 #@! TD*
D12*
G04 #@! TO.N,/CM5_GPIO ( Ethernet\u002C GPIO\u002C SDCARD)/TRD0_P*
G04 #@! TO.C,U3*
X127490000Y-26995000D03*
D13*
G04 #@! TO.N,/CM5_GPIO ( Ethernet\u002C GPIO\u002C SDCARD)/TRD0_N*
X124950000Y-28265000D03*
G04 #@! TO.N,/CM5_GPIO ( Ethernet\u002C GPIO\u002C SDCARD)/TRD1_P*
X127490000Y-29535000D03*
G04 #@! TO.N,Net-(C1-Pad1)*
X124950000Y-30805000D03*
X127490000Y-32075000D03*
G04 #@! TO.N,/CM5_GPIO ( Ethernet\u002C GPIO\u002C SDCARD)/TRD1_N*
X124950000Y-33345000D03*
G04 #@! TO.N,/CM5_GPIO ( Ethernet\u002C GPIO\u002C SDCARD)/TRD2_P*
X127490000Y-34615000D03*
G04 #@! TO.N,/CM5_GPIO ( Ethernet\u002C GPIO\u002C SDCARD)/TRD2_N*
X124950000Y-35885000D03*
G04 #@! TO.N,/CM5_GPIO ( Ethernet\u002C GPIO\u002C SDCARD)/TRD3_P*
X127490000Y-37155000D03*
G04 #@! TO.N,/CM5_GPIO ( Ethernet\u002C GPIO\u002C SDCARD)/TRD3_N*
X124950000Y-38425000D03*
G04 #@! TO.N,/CM5_GPIO ( Ethernet\u002C GPIO\u002C SDCARD)/TR0_TAP*
X122430000Y-26995000D03*
G04 #@! TO.N,/CM5_GPIO ( Ethernet\u002C GPIO\u002C SDCARD)/TR1_TAP*
X121160000Y-29535000D03*
G04 #@! TO.N,/CM5_GPIO ( Ethernet\u002C GPIO\u002C SDCARD)/TR2_TAP*
X121160000Y-35885000D03*
G04 #@! TO.N,/CM5_GPIO ( Ethernet\u002C GPIO\u002C SDCARD)/TR3_TAP*
X122430000Y-38425000D03*
G04 #@! TO.N,/+3.3v*
X114540000Y-26080000D03*
G04 #@! TO.N,Net-(U3-LEDY_K)*
X114540000Y-28620000D03*
G04 #@! TO.N,/+3.3v*
X114540000Y-36800000D03*
G04 #@! TO.N,Net-(U3-LEDG_K)*
X114540000Y-39340000D03*
D14*
G04 #@! TO.N,GND*
X121650000Y-24835000D03*
X121650000Y-40585000D03*
G04 #@! TD*
D15*
G04 #@! TO.N,BatterieSwitch*
G04 #@! TO.C,SW1*
X157487500Y-35292500D03*
D16*
G04 #@! TO.N,/CM5_GPIO ( Ethernet\u002C GPIO\u002C SDCARD)/BAT AD IN*
X157487500Y-42912500D03*
G04 #@! TD*
D17*
G04 #@! TO.N,+5V*
G04 #@! TO.C,J10*
X159340000Y-84070000D03*
D18*
G04 #@! TO.N,/stm32/SPI CLK*
X161840000Y-84070000D03*
G04 #@! TO.N,/stm32/SPI MOSI*
X164340000Y-84070000D03*
G04 #@! TO.N,/stm32/SPI MISO*
X166840000Y-84070000D03*
G04 #@! TO.N,/stm32/CS2*
X169340000Y-84070000D03*
G04 #@! TO.N,GND*
X171840000Y-84070000D03*
G04 #@! TD*
D17*
G04 #@! TO.N,+5V*
G04 #@! TO.C,J1*
X159340000Y-94230000D03*
D18*
G04 #@! TO.N,/stm32/SPI CLK*
X161840000Y-94230000D03*
G04 #@! TO.N,/stm32/SPI MOSI*
X164340000Y-94230000D03*
G04 #@! TO.N,/stm32/SPI MISO*
X166840000Y-94230000D03*
G04 #@! TO.N,/stm32/CS4*
X169340000Y-94230000D03*
G04 #@! TO.N,GND*
X171840000Y-94230000D03*
G04 #@! TD*
D19*
G04 #@! TO.N,unconnected-(U4-PB12-Pad1)*
G04 #@! TO.C,U4*
X116830000Y-125420000D03*
D20*
G04 #@! TO.N,/stm32/SPI CLK*
X119370000Y-125420000D03*
G04 #@! TO.N,/stm32/SPI MISO*
X121910000Y-125420000D03*
G04 #@! TO.N,/stm32/SPI MOSI*
X124450000Y-125420000D03*
G04 #@! TO.N,unconnected-(U4-PA8-Pad5)*
X126990000Y-125420000D03*
G04 #@! TO.N,unconnected-(U4-PA9-Pad6)*
X129530000Y-125420000D03*
G04 #@! TO.N,unconnected-(U4-PA10-Pad7)*
X132070000Y-125420000D03*
G04 #@! TO.N,unconnected-(U4-PA11-Pad8)*
X134610000Y-125420000D03*
G04 #@! TO.N,unconnected-(U4-PA12-Pad9)*
X137150000Y-125420000D03*
G04 #@! TO.N,unconnected-(U4-PA15-Pad10)*
X139690000Y-125420000D03*
G04 #@! TO.N,unconnected-(U4-PB3-Pad11)*
X142230000Y-125420000D03*
G04 #@! TO.N,unconnected-(U4-PB4-Pad12)*
X144770000Y-125420000D03*
G04 #@! TO.N,unconnected-(U4-PB5-Pad13)*
X147310000Y-125420000D03*
G04 #@! TO.N,/stm32/CS4*
X149850000Y-125420000D03*
G04 #@! TO.N,/stm32/CS3*
X152390000Y-125420000D03*
G04 #@! TO.N,/stm32/3.3v micro*
X154930000Y-125420000D03*
G04 #@! TO.N,GND*
X157470000Y-125420000D03*
X157470000Y-107640000D03*
G04 #@! TO.N,unconnected-(U4-PB8-Pad19)*
X154930000Y-107640000D03*
G04 #@! TO.N,unconnected-(U4-PB9-Pad20)*
X152390000Y-107640000D03*
G04 #@! TO.N,unconnected-(U4-PC13-Pad21)*
X149850000Y-107640000D03*
G04 #@! TO.N,unconnected-(U4-RST-Pad22)*
X147310000Y-107640000D03*
G04 #@! TO.N,/stm32/MOTOR INT A*
X144770000Y-107640000D03*
G04 #@! TO.N,/stm32/MOTOR INT B*
X142230000Y-107640000D03*
G04 #@! TO.N,Net-(D4-A)*
X139690000Y-107640000D03*
G04 #@! TO.N,Net-(D3-A)*
X137150000Y-107640000D03*
G04 #@! TO.N,Net-(U4-PA4)*
X134610000Y-107640000D03*
G04 #@! TO.N,unconnected-(U4-PA5-Pad28)*
X132070000Y-107640000D03*
G04 #@! TO.N,/stm32/MOTOR PWM 2*
X129530000Y-107640000D03*
G04 #@! TO.N,/stm32/MOTOR PWM 1*
X126990000Y-107640000D03*
G04 #@! TO.N,unconnected-(U4-PB0-Pad31)*
X124450000Y-107640000D03*
G04 #@! TO.N,/stm32/CS2*
X121910000Y-107640000D03*
G04 #@! TO.N,/stm32/CS1*
X119370000Y-107640000D03*
G04 #@! TO.N,unconnected-(U4-PB11-Pad34)*
X116830000Y-107640000D03*
G04 #@! TD*
D17*
G04 #@! TO.N,+5V*
G04 #@! TO.C,J12*
X159340000Y-99310000D03*
D18*
G04 #@! TO.N,/stm32/SPI CLK*
X161840000Y-99310000D03*
G04 #@! TO.N,/stm32/SPI MOSI*
X164340000Y-99310000D03*
G04 #@! TO.N,/stm32/SPI MISO*
X166840000Y-99310000D03*
G04 #@! TO.N,/stm32/CS1*
X169340000Y-99310000D03*
G04 #@! TO.N,GND*
X171840000Y-99310000D03*
G04 #@! TD*
D19*
G04 #@! TO.N,/+3.3v*
G04 #@! TO.C,J8*
X112255000Y-97475000D03*
D20*
G04 #@! TO.N,/+5v*
X109715000Y-97475000D03*
G04 #@! TO.N,/CM5_GPIO ( Ethernet\u002C GPIO\u002C SDCARD)/GPIO2*
X112255000Y-94935000D03*
G04 #@! TO.N,/+5v*
X109715000Y-94935000D03*
G04 #@! TO.N,/CM5_GPIO ( Ethernet\u002C GPIO\u002C SDCARD)/GPIO3*
X112255000Y-92395000D03*
G04 #@! TO.N,GND*
X109715000Y-92395000D03*
G04 #@! TO.N,/CM5_GPIO ( Ethernet\u002C GPIO\u002C SDCARD)/GPIO4*
X112255000Y-89855000D03*
G04 #@! TO.N,/CM5_GPIO ( Ethernet\u002C GPIO\u002C SDCARD)/GPIO14*
X109715000Y-89855000D03*
G04 #@! TO.N,GND*
X112255000Y-87315000D03*
G04 #@! TO.N,/CM5_GPIO ( Ethernet\u002C GPIO\u002C SDCARD)/GPIO15*
X109715000Y-87315000D03*
G04 #@! TO.N,/CM5_GPIO ( Ethernet\u002C GPIO\u002C SDCARD)/GPIO17*
X112255000Y-84775000D03*
G04 #@! TO.N,/CM5_GPIO ( Ethernet\u002C GPIO\u002C SDCARD)/GPIO18*
X109715000Y-84775000D03*
G04 #@! TO.N,/CM5_GPIO ( Ethernet\u002C GPIO\u002C SDCARD)/GPIO27*
X112255000Y-82235000D03*
G04 #@! TO.N,GND*
X109715000Y-82235000D03*
G04 #@! TO.N,/CM5_GPIO ( Ethernet\u002C GPIO\u002C SDCARD)/GPIO22*
X112255000Y-79695000D03*
G04 #@! TO.N,/CM5_GPIO ( Ethernet\u002C GPIO\u002C SDCARD)/GPIO23*
X109715000Y-79695000D03*
G04 #@! TO.N,/+3.3v*
X112255000Y-77155000D03*
G04 #@! TO.N,/CM5_GPIO ( Ethernet\u002C GPIO\u002C SDCARD)/GPIO24*
X109715000Y-77155000D03*
G04 #@! TO.N,/CM5_GPIO ( Ethernet\u002C GPIO\u002C SDCARD)/GPIO10*
X112255000Y-74615000D03*
G04 #@! TO.N,GND*
X109715000Y-74615000D03*
G04 #@! TO.N,/CM5_GPIO ( Ethernet\u002C GPIO\u002C SDCARD)/GPIO9*
X112255000Y-72075000D03*
G04 #@! TO.N,/CM5_GPIO ( Ethernet\u002C GPIO\u002C SDCARD)/GPIO25*
X109715000Y-72075000D03*
G04 #@! TO.N,/CM5_GPIO ( Ethernet\u002C GPIO\u002C SDCARD)/GPIO11*
X112255000Y-69535000D03*
G04 #@! TO.N,/CM5_GPIO ( Ethernet\u002C GPIO\u002C SDCARD)/GPIO8*
X109715000Y-69535000D03*
G04 #@! TO.N,GND*
X112255000Y-66995000D03*
G04 #@! TO.N,/CM5_GPIO ( Ethernet\u002C GPIO\u002C SDCARD)/GPIO7*
X109715000Y-66995000D03*
G04 #@! TO.N,/CM5_GPIO ( Ethernet\u002C GPIO\u002C SDCARD)/ID_SD*
X112255000Y-64455000D03*
G04 #@! TO.N,/CM5_GPIO ( Ethernet\u002C GPIO\u002C SDCARD)/ID_SC*
X109715000Y-64455000D03*
G04 #@! TO.N,/CM5_GPIO ( Ethernet\u002C GPIO\u002C SDCARD)/GPIO5*
X112255000Y-61915000D03*
G04 #@! TO.N,GND*
X109715000Y-61915000D03*
G04 #@! TO.N,/CM5_GPIO ( Ethernet\u002C GPIO\u002C SDCARD)/GPIO6*
X112255000Y-59375000D03*
G04 #@! TO.N,/CM5_GPIO ( Ethernet\u002C GPIO\u002C SDCARD)/GPIO12*
X109715000Y-59375000D03*
G04 #@! TO.N,/CM5_GPIO ( Ethernet\u002C GPIO\u002C SDCARD)/GPIO13*
X112255000Y-56835000D03*
G04 #@! TO.N,GND*
X109715000Y-56835000D03*
G04 #@! TO.N,/CM5_GPIO ( Ethernet\u002C GPIO\u002C SDCARD)/GPIO19*
X112255000Y-54295000D03*
G04 #@! TO.N,/CM5_GPIO ( Ethernet\u002C GPIO\u002C SDCARD)/GPIO16*
X109715000Y-54295000D03*
G04 #@! TO.N,/CM5_GPIO ( Ethernet\u002C GPIO\u002C SDCARD)/GPIO26*
X112255000Y-51755000D03*
G04 #@! TO.N,/CM5_GPIO ( Ethernet\u002C GPIO\u002C SDCARD)/GPIO20*
X109715000Y-51755000D03*
G04 #@! TO.N,GND*
X112255000Y-49215000D03*
G04 #@! TO.N,/CM5_GPIO ( Ethernet\u002C GPIO\u002C SDCARD)/GPIO21*
X109715000Y-49215000D03*
G04 #@! TD*
D21*
G04 #@! TO.N,BatterieSwitch*
G04 #@! TO.C,U9*
X150030000Y-41600000D03*
D22*
G04 #@! TO.N,GND*
X150030000Y-39060000D03*
G04 #@! TO.N,/+5v*
X150030000Y-36520000D03*
G04 #@! TD*
D23*
G04 #@! TO.N,Net-(J7-Pin_1)*
G04 #@! TO.C,J7*
X170200000Y-118950000D03*
D24*
G04 #@! TO.N,/stm32/3.3v micro*
X170200000Y-116450000D03*
G04 #@! TO.N,/stm32/MOTOR PWM 2*
X170200000Y-113950000D03*
G04 #@! TO.N,/stm32/MOTOR PWM 1*
X170200000Y-111450000D03*
G04 #@! TO.N,GND*
X170200000Y-108950000D03*
G04 #@! TO.N,Net-(J7-Pin_6)*
X170200000Y-106450000D03*
G04 #@! TD*
D25*
G04 #@! TO.N,GND*
G04 #@! TO.C,U7*
X156050000Y-115230000D03*
X156050000Y-116530000D03*
X156050000Y-117830000D03*
X157350000Y-115230000D03*
X157350000Y-116530000D03*
X157350000Y-117830000D03*
G04 #@! TD*
D10*
G04 #@! TO.N,GND*
G04 #@! TO.C,J3*
X132570000Y-39060000D03*
D11*
G04 #@! TO.N,/CM5_GPIO ( Ethernet\u002C GPIO\u002C SDCARD)/PWR_BUT*
X132570000Y-41560000D03*
G04 #@! TD*
D17*
G04 #@! TO.N,+5V*
G04 #@! TO.C,J4*
X159340000Y-89150000D03*
D18*
G04 #@! TO.N,/stm32/SPI CLK*
X161840000Y-89150000D03*
G04 #@! TO.N,/stm32/SPI MOSI*
X164340000Y-89150000D03*
G04 #@! TO.N,/stm32/SPI MISO*
X166840000Y-89150000D03*
G04 #@! TO.N,/stm32/CS3*
X169340000Y-89150000D03*
G04 #@! TO.N,GND*
X171840000Y-89150000D03*
G04 #@! TD*
M02*
