M48
; DRILL file {KiCad 9.0.7} date 2026-02-15T19:18:06+0100
; FORMAT={-:-/ absolute / metric / decimal}
; #@! TF.CreationDate,2026-02-15T19:18:06+01:00
; #@! TF.GenerationSoftware,Kicad,Pcbnew,9.0.7
; #@! TF.FileFunction,Plated,1,4,PTH
FMAT,2
METRIC
; #@! TA.AperFunction,Plated,PTH,ComponentDrill
T1C0.330
; #@! TA.AperFunction,Plated,PTH,ComponentDrill
T2C0.800
; #@! TA.AperFunction,Plated,PTH,ComponentDrill
T3C0.900
; #@! TA.AperFunction,Plated,PTH,ComponentDrill
T4C0.950
; #@! TA.AperFunction,Plated,PTH,ComponentDrill
T5C1.000
; #@! TA.AperFunction,Plated,PTH,ComponentDrill
T6C1.020
; #@! TA.AperFunction,Plated,PTH,ComponentDrill
T7C1.100
; #@! TA.AperFunction,Plated,PTH,ComponentDrill
T8C1.700
%
G90
G05
T1
X156.05Y-115.23
X156.05Y-116.53
X156.05Y-117.83
X157.35Y-115.23
X157.35Y-116.53
X157.35Y-117.83
T2
X157.487Y-35.292
X157.487Y-42.913
T3
X121.16Y-29.535
X121.16Y-35.885
X122.43Y-26.995
X122.43Y-38.425
X124.95Y-28.265
X124.95Y-30.805
X124.95Y-33.345
X124.95Y-35.885
X124.95Y-38.425
X127.49Y-26.995
X127.49Y-29.535
X127.49Y-32.075
X127.49Y-34.615
X127.49Y-37.155
T4
X159.34Y-84.07
X159.34Y-89.15
X159.34Y-94.23
X159.34Y-99.31
X161.84Y-84.07
X161.84Y-89.15
X161.84Y-94.23
X161.84Y-99.31
X164.34Y-84.07
X164.34Y-89.15
X164.34Y-94.23
X164.34Y-99.31
X166.84Y-84.07
X166.84Y-89.15
X166.84Y-94.23
X166.84Y-99.31
X169.34Y-84.07
X169.34Y-89.15
X169.34Y-94.23
X169.34Y-99.31
X170.2Y-106.45
X170.2Y-108.95
X170.2Y-111.45
X170.2Y-113.95
X170.2Y-116.45
X170.2Y-118.95
X171.84Y-84.07
X171.84Y-89.15
X171.84Y-94.23
X171.84Y-99.31
T5
X109.715Y-49.215
X109.715Y-51.755
X109.715Y-54.295
X109.715Y-56.835
X109.715Y-59.375
X109.715Y-61.915
X109.715Y-64.455
X109.715Y-66.995
X109.715Y-69.535
X109.715Y-72.075
X109.715Y-74.615
X109.715Y-77.155
X109.715Y-79.695
X109.715Y-82.235
X109.715Y-84.775
X109.715Y-87.315
X109.715Y-89.855
X109.715Y-92.395
X109.715Y-94.935
X109.715Y-97.475
X112.255Y-49.215
X112.255Y-51.755
X112.255Y-54.295
X112.255Y-56.835
X112.255Y-59.375
X112.255Y-61.915
X112.255Y-64.455
X112.255Y-66.995
X112.255Y-69.535
X112.255Y-72.075
X112.255Y-74.615
X112.255Y-77.155
X112.255Y-79.695
X112.255Y-82.235
X112.255Y-84.775
X112.255Y-87.315
X112.255Y-89.855
X112.255Y-92.395
X112.255Y-94.935
X112.255Y-97.475
X116.83Y-107.64
X116.83Y-125.42
X119.37Y-107.64
X119.37Y-125.42
X121.91Y-107.64
X121.91Y-125.42
X124.45Y-107.64
X124.45Y-125.42
X126.99Y-107.64
X126.99Y-125.42
X129.53Y-107.64
X129.53Y-125.42
X132.07Y-107.64
X132.07Y-125.42
X132.57Y-39.06
X132.57Y-41.56
X134.61Y-107.64
X134.61Y-125.42
X137.15Y-107.64
X137.15Y-125.42
X139.69Y-107.64
X139.69Y-125.42
X142.23Y-107.64
X142.23Y-125.42
X144.77Y-107.64
X144.77Y-125.42
X147.31Y-107.64
X147.31Y-125.42
X149.85Y-107.64
X149.85Y-125.42
X152.39Y-107.64
X152.39Y-125.42
X154.93Y-107.64
X154.93Y-125.42
X157.47Y-107.64
X157.47Y-125.42
X164.32Y-37.832
X164.32Y-40.332
T6
X114.54Y-26.08
X114.54Y-28.62
X114.54Y-36.8
X114.54Y-39.34
T7
X150.03Y-36.52
X150.03Y-39.06
X150.03Y-41.6
T8
X121.65Y-24.835
X121.65Y-40.585
M30
